<?xml version="1.0" encoding="utf-8" standalone="no"?>
<!DOCTYPE svg PUBLIC "-//W3C//DTD SVG 1.1//EN"
  "http://www.w3.org/Graphics/SVG/1.1/DTD/svg11.dtd">
<svg height="126pt" version="1.1" viewBox="0 0 234 126" width="234pt" xmlns="http://www.w3.org/2000/svg" xmlns:xlink="http://www.w3.org/1999/xlink">
 <metadata>
  <rdf:RDF xmlns:cc="http://creativecommons.org/ns#" xmlns:dc="http://purl.org/dc/elements/1.1/" xmlns:rdf="http://www.w3.org/1999/02/22-rdf-syntax-ns#">
   <cc:Work>
    <dc:type rdf:resource="http://purl.org/dc/dcmitype/StillImage"/>
    <dc:date>2022-02-08T15:59:06.313950</dc:date>
    <dc:format>image/svg+xml</dc:format>
    <dc:creator>
     <cc:Agent>
      <dc:title>Matplotlib v3.4.2, https://matplotlib.org/</dc:title>
     </cc:Agent>
    </dc:creator>
   </cc:Work>
  </rdf:RDF>
 </metadata>
 <defs>
  <style type="text/css">*{stroke-linecap:butt;stroke-linejoin:round;}</style>
 </defs>
 <g id="figure_1">
  <g id="patch_1">
   <path d="M 0 126 
L 234 126 
L 234 0 
L 0 0 
z
" style="fill:#ffffff;"/>
  </g>
  <g id="axes_1">
   <g id="patch_2">
    <path d="M 14.43304 75.633525 
L 72.303013 75.633525 
L 72.303013 45.201856 
L 14.43304 45.201856 
z
" style="fill:#ffffff;"/>
   </g>
   <g id="matplotlib.axis_1">
    <g id="text_1">
     <!-- $[$S$]_{in}$ -->
     <g style="fill:#262626;" transform="translate(35.304027 85.469125)scale(0.0768 -0.0768)">
      <defs>
       <path d="M 550 4863 
L 1875 4863 
L 1875 4416 
L 1125 4416 
L 1125 -397 
L 1875 -397 
L 1875 -844 
L 550 -844 
L 550 4863 
z
" id="DejaVuSans-5b" transform="scale(0.015625)"/>
       <path d="M 3425 4513 
L 3425 3897 
Q 3066 4069 2747 4153 
Q 2428 4238 2131 4238 
Q 1616 4238 1336 4038 
Q 1056 3838 1056 3469 
Q 1056 3159 1242 3001 
Q 1428 2844 1947 2747 
L 2328 2669 
Q 3034 2534 3370 2195 
Q 3706 1856 3706 1288 
Q 3706 609 3251 259 
Q 2797 -91 1919 -91 
Q 1588 -91 1214 -16 
Q 841 59 441 206 
L 441 856 
Q 825 641 1194 531 
Q 1563 422 1919 422 
Q 2459 422 2753 634 
Q 3047 847 3047 1241 
Q 3047 1584 2836 1778 
Q 2625 1972 2144 2069 
L 1759 2144 
Q 1053 2284 737 2584 
Q 422 2884 422 3419 
Q 422 4038 858 4394 
Q 1294 4750 2059 4750 
Q 2388 4750 2728 4690 
Q 3069 4631 3425 4513 
z
" id="DejaVuSans-53" transform="scale(0.015625)"/>
       <path d="M 1947 4863 
L 1947 -844 
L 622 -844 
L 622 -397 
L 1369 -397 
L 1369 4416 
L 622 4416 
L 622 4863 
L 1947 4863 
z
" id="DejaVuSans-5d" transform="scale(0.015625)"/>
       <path d="M 1172 4863 
L 1747 4863 
L 1606 4134 
L 1031 4134 
L 1172 4863 
z
M 909 3500 
L 1484 3500 
L 800 0 
L 225 0 
L 909 3500 
z
" id="DejaVuSans-Oblique-69" transform="scale(0.015625)"/>
       <path d="M 3566 2113 
L 3156 0 
L 2578 0 
L 2988 2091 
Q 3016 2238 3031 2350 
Q 3047 2463 3047 2528 
Q 3047 2791 2881 2937 
Q 2716 3084 2419 3084 
Q 1956 3084 1622 2776 
Q 1288 2469 1184 1941 
L 800 0 
L 225 0 
L 903 3500 
L 1478 3500 
L 1363 2950 
Q 1603 3253 1940 3418 
Q 2278 3584 2650 3584 
Q 3113 3584 3367 3334 
Q 3622 3084 3622 2631 
Q 3622 2519 3608 2391 
Q 3594 2263 3566 2113 
z
" id="DejaVuSans-Oblique-6e" transform="scale(0.015625)"/>
      </defs>
      <use transform="translate(0 0.015625)" xlink:href="#DejaVuSans-5b"/>
      <use transform="translate(39.013672 0.015625)" xlink:href="#DejaVuSans-53"/>
      <use transform="translate(102.490234 0.015625)" xlink:href="#DejaVuSans-5d"/>
      <use transform="translate(142.460938 -16.390625)scale(0.7)" xlink:href="#DejaVuSans-Oblique-69"/>
      <use transform="translate(161.90918 -16.390625)scale(0.7)" xlink:href="#DejaVuSans-Oblique-6e"/>
     </g>
    </g>
   </g>
   <g id="matplotlib.axis_2">
    <g id="text_2">
     <!-- $[$P$]_{out}$ -->
     <g style="fill:#262626;" transform="translate(8.83584 70.286491)rotate(-90)scale(0.0768 -0.0768)">
      <defs>
       <path d="M 1259 4147 
L 1259 2394 
L 2053 2394 
Q 2494 2394 2734 2622 
Q 2975 2850 2975 3272 
Q 2975 3691 2734 3919 
Q 2494 4147 2053 4147 
L 1259 4147 
z
M 628 4666 
L 2053 4666 
Q 2838 4666 3239 4311 
Q 3641 3956 3641 3272 
Q 3641 2581 3239 2228 
Q 2838 1875 2053 1875 
L 1259 1875 
L 1259 0 
L 628 0 
L 628 4666 
z
" id="DejaVuSans-50" transform="scale(0.015625)"/>
       <path d="M 1625 -91 
Q 1009 -91 651 289 
Q 294 669 294 1325 
Q 294 1706 417 2101 
Q 541 2497 738 2766 
Q 1047 3184 1428 3384 
Q 1809 3584 2291 3584 
Q 2888 3584 3255 3212 
Q 3622 2841 3622 2241 
Q 3622 1825 3500 1412 
Q 3378 1000 3181 728 
Q 2875 309 2494 109 
Q 2113 -91 1625 -91 
z
M 891 1344 
Q 891 869 1089 633 
Q 1288 397 1691 397 
Q 2269 397 2648 901 
Q 3028 1406 3028 2181 
Q 3028 2634 2825 2865 
Q 2622 3097 2228 3097 
Q 1903 3097 1650 2945 
Q 1397 2794 1197 2484 
Q 1050 2253 970 1956 
Q 891 1659 891 1344 
z
" id="DejaVuSans-Oblique-6f" transform="scale(0.015625)"/>
       <path d="M 428 1388 
L 838 3500 
L 1416 3500 
L 1006 1409 
Q 975 1256 961 1147 
Q 947 1038 947 966 
Q 947 700 1109 554 
Q 1272 409 1569 409 
Q 2031 409 2368 721 
Q 2706 1034 2809 1563 
L 3194 3500 
L 3769 3500 
L 3091 0 
L 2516 0 
L 2631 550 
Q 2388 244 2052 76 
Q 1716 -91 1338 -91 
Q 878 -91 622 161 
Q 366 413 366 863 
Q 366 956 381 1097 
Q 397 1238 428 1388 
z
" id="DejaVuSans-Oblique-75" transform="scale(0.015625)"/>
       <path d="M 2706 3500 
L 2619 3053 
L 1472 3053 
L 1100 1153 
Q 1081 1047 1072 975 
Q 1063 903 1063 863 
Q 1063 663 1183 572 
Q 1303 481 1569 481 
L 2150 481 
L 2053 0 
L 1503 0 
Q 991 0 739 200 
Q 488 400 488 806 
Q 488 878 497 964 
Q 506 1050 525 1153 
L 897 3053 
L 409 3053 
L 500 3500 
L 978 3500 
L 1172 4494 
L 1747 4494 
L 1556 3500 
L 2706 3500 
z
" id="DejaVuSans-Oblique-74" transform="scale(0.015625)"/>
      </defs>
      <use transform="translate(0 0.015625)" xlink:href="#DejaVuSans-5b"/>
      <use transform="translate(39.013672 0.015625)" xlink:href="#DejaVuSans-50"/>
      <use transform="translate(99.316406 0.015625)" xlink:href="#DejaVuSans-5d"/>
      <use transform="translate(139.287109 -16.390625)scale(0.7)" xlink:href="#DejaVuSans-Oblique-6f"/>
      <use transform="translate(182.114258 -16.390625)scale(0.7)" xlink:href="#DejaVuSans-Oblique-75"/>
      <use transform="translate(226.479492 -16.390625)scale(0.7)" xlink:href="#DejaVuSans-Oblique-74"/>
     </g>
    </g>
   </g>
   <g id="PathCollection_1">
    <defs>
     <path d="M 0 2.828427 
C 0.750108 2.828427 1.469594 2.530406 2 2 
C 2.530406 1.469594 2.828427 0.750108 2.828427 0 
C 2.828427 -0.750108 2.530406 -1.469594 2 -2 
C 1.469594 -2.530406 0.750108 -2.828427 0 -2.828427 
C -0.750108 -2.828427 -1.469594 -2.530406 -2 -2 
C -2.530406 -1.469594 -2.828427 -0.750108 -2.828427 0 
C -2.828427 0.750108 -2.530406 1.469594 -2 2 
C -1.469594 2.530406 -0.750108 2.828427 0 2.828427 
z
" id="mcc8e685711" style="stroke:#000000;stroke-width:0.8;"/>
    </defs>
    <g clip-path="url(#p43f230728e)">
     <use style="fill:#4c72b0;stroke:#000000;stroke-width:0.8;" x="19.255538" xlink:href="#mcc8e685711" y="66.80872"/>
     <use style="fill:#4c72b0;stroke:#000000;stroke-width:0.8;" x="24.078036" xlink:href="#mcc8e685711" y="61.212079"/>
     <use style="fill:#4c72b0;stroke:#000000;stroke-width:0.8;" x="33.723031" xlink:href="#mcc8e685711" y="54.676981"/>
     <use style="fill:#4c72b0;stroke:#000000;stroke-width:0.8;" x="43.368027" xlink:href="#mcc8e685711" y="51.397136"/>
     <use style="fill:#4c72b0;stroke:#000000;stroke-width:0.8;" x="62.658018" xlink:href="#mcc8e685711" y="49.658913"/>
    </g>
   </g>
   <g id="PathCollection_2">
    <defs>
     <path d="M 0 2.828427 
C 0.750108 2.828427 1.469594 2.530406 2 2 
C 2.530406 1.469594 2.828427 0.750108 2.828427 0 
C 2.828427 -0.750108 2.530406 -1.469594 2 -2 
C 1.469594 -2.530406 0.750108 -2.828427 0 -2.828427 
C -0.750108 -2.828427 -1.469594 -2.530406 -2 -2 
C -2.530406 -1.469594 -2.828427 -0.750108 -2.828427 0 
C -2.828427 0.750108 -2.530406 1.469594 -2 2 
C -1.469594 2.530406 -0.750108 2.828427 0 2.828427 
z
" id="mb732886a43" style="stroke:#000000;stroke-width:0.8;"/>
    </defs>
    <g clip-path="url(#p43f230728e)">
     <use style="fill:#c44e52;stroke:#000000;stroke-width:0.8;" x="19.255538" xlink:href="#mb732886a43" y="67.174197"/>
     <use style="fill:#c44e52;stroke:#000000;stroke-width:0.8;" x="24.078036" xlink:href="#mb732886a43" y="62.504696"/>
     <use style="fill:#c44e52;stroke:#000000;stroke-width:0.8;" x="33.723031" xlink:href="#mb732886a43" y="58.216654"/>
     <use style="fill:#c44e52;stroke:#000000;stroke-width:0.8;" x="43.368027" xlink:href="#mb732886a43" y="56.599067"/>
     <use style="fill:#c44e52;stroke:#000000;stroke-width:0.8;" x="62.658018" xlink:href="#mb732886a43" y="55.477016"/>
    </g>
   </g>
   <g id="line2d_1">
    <path clip-path="url(#p43f230728e)" d="M 19.255538 66.80872 
L 24.078036 61.212079 
L 33.723031 54.676981 
L 43.368027 51.397136 
L 62.658018 49.658913 
" style="fill:none;stroke:#4c72b0;stroke-dasharray:4.44,1.92;stroke-dashoffset:0;stroke-width:1.2;"/>
   </g>
   <g id="line2d_2">
    <path clip-path="url(#p43f230728e)" d="M 19.255538 67.174197 
L 24.078036 62.504696 
L 33.723031 58.216654 
L 43.368027 56.599067 
L 62.658018 55.477016 
" style="fill:none;stroke:#c44e52;stroke-dasharray:4.44,1.92;stroke-dashoffset:0;stroke-width:1.2;"/>
   </g>
   <g id="patch_3">
    <path d="M 14.43304 75.633525 
L 14.43304 45.201856 
" style="fill:none;stroke:#262626;stroke-linecap:square;stroke-linejoin:miter;"/>
   </g>
   <g id="patch_4">
    <path d="M 14.43304 75.633525 
L 72.303013 75.633525 
" style="fill:none;stroke:#262626;stroke-linecap:square;stroke-linejoin:miter;"/>
   </g>
   <g id="text_3">
    <!-- $\mathbf{y}$ -->
    <g style="fill:#262626;" transform="translate(40.068027 9.801332)scale(0.1 -0.1)">
     <defs>
      <path d="M 78 3500 
L 1197 3500 
L 2138 1125 
L 2938 3500 
L 4056 3500 
L 2584 -331 
Q 2363 -916 2067 -1148 
Q 1772 -1381 1288 -1381 
L 641 -1381 
L 641 -647 
L 991 -647 
Q 1275 -647 1404 -556 
Q 1534 -466 1606 -231 
L 1638 -134 
L 78 3500 
z
" id="DejaVuSans-Bold-79" transform="scale(0.015625)"/>
     </defs>
     <use transform="translate(0 0.3125)" xlink:href="#DejaVuSans-Bold-79"/>
    </g>
   </g>
  </g>
  <g id="axes_2">
   <g id="patch_5">
    <path clip-path="url(#pe04aa33649)" d="M 108.116917 38.384438 
L 124.577794 29.557877 
" style="fill:none;stroke:#1a1a1a;stroke-linecap:round;"/>
    <path clip-path="url(#pe04aa33649)" d="M 120.554512 29.672774 
L 124.577794 29.557877 
L 122.255742 32.845441 
L 120.554512 29.672774 
z
" style="fill:#1a1a1a;stroke:#1a1a1a;stroke-linecap:round;"/>
   </g>
   <g id="patch_6">
    <path clip-path="url(#pe04aa33649)" d="M 108.116917 47.838192 
L 124.577794 56.664752 
" style="fill:none;stroke:#1a1a1a;stroke-linecap:round;"/>
    <path clip-path="url(#pe04aa33649)" d="M 122.255742 53.377189 
L 124.577794 56.664752 
L 120.554512 56.549856 
L 122.255742 53.377189 
z
" style="fill:#1a1a1a;stroke:#1a1a1a;stroke-linecap:round;"/>
   </g>
   <g id="patch_7">
    <path clip-path="url(#pe04aa33649)" d="M 104.582673 72.229014 
L 128.505453 33.745791 
" style="fill:none;stroke:#1a1a1a;stroke-linecap:round;"/>
    <path clip-path="url(#pe04aa33649)" d="M 125.076145 35.852887 
L 128.505453 33.745791 
L 128.133545 37.753495 
L 125.076145 35.852887 
z
" style="fill:#1a1a1a;stroke:#1a1a1a;stroke-linecap:round;"/>
   </g>
   <g id="patch_8">
    <path clip-path="url(#pe04aa33649)" d="M 108.116917 75.99743 
L 124.577794 67.170869 
" style="fill:none;stroke:#1a1a1a;stroke-linecap:round;"/>
    <path clip-path="url(#pe04aa33649)" d="M 120.554512 67.285766 
L 124.577794 67.170869 
L 122.255742 70.458433 
L 120.554512 67.285766 
z
" style="fill:#1a1a1a;stroke:#1a1a1a;stroke-linecap:round;"/>
   </g>
   <g id="patch_9">
    <path clip-path="url(#pe04aa33649)" d="M 108.116917 85.451183 
L 124.577794 94.277744 
" style="fill:none;stroke:#1a1a1a;stroke-linecap:round;"/>
    <path clip-path="url(#pe04aa33649)" d="M 122.255742 90.990181 
L 124.577794 94.277744 
L 120.554512 94.162848 
L 122.255742 90.990181 
z
" style="fill:#1a1a1a;stroke:#1a1a1a;stroke-linecap:round;"/>
   </g>
   <g id="PathCollection_3">
    <defs>
     <path d="M 0 10 
C 2.652031 10 5.195799 8.946337 7.071068 7.071068 
C 8.946337 5.195799 10 2.652031 10 -0 
C 10 -2.652031 8.946337 -5.195799 7.071068 -7.071068 
C 5.195799 -8.946337 2.652031 -10 0 -10 
C -2.652031 -10 -5.195799 -8.946337 -7.071068 -7.071068 
C -8.946337 -5.195799 -10 -2.652031 -10 0 
C -10 2.652031 -8.946337 5.195799 -7.071068 7.071068 
C -5.195799 8.946337 -2.652031 10 0 10 
z
" id="C0_0_9cf9dbe2f8"/>
    </defs>
    <g clip-path="url(#pe04aa33649)">
     <use style="fill:#4c72b0;stroke:#000000;stroke-width:0.8;" x="99.301644" xlink:href="#C0_0_9cf9dbe2f8" y="43.111315"/>
    </g>
    <g clip-path="url(#pe04aa33649)">
     <use style="fill:#a39fd4;stroke:#000000;stroke-width:0.8;" x="134.374356" xlink:href="#C0_0_9cf9dbe2f8" y="24.304819"/>
    </g>
    <g clip-path="url(#pe04aa33649)">
     <use style="fill:#a39fd4;stroke:#000000;stroke-width:0.8;" x="134.374356" xlink:href="#C0_0_9cf9dbe2f8" y="61.917811"/>
    </g>
    <g clip-path="url(#pe04aa33649)">
     <use style="fill:#c44e52;stroke:#000000;stroke-width:0.8;" x="99.301644" xlink:href="#C0_0_9cf9dbe2f8" y="80.724307"/>
    </g>
    <g clip-path="url(#pe04aa33649)">
     <use style="fill:#a39fd4;stroke:#000000;stroke-width:0.8;" x="134.374356" xlink:href="#C0_0_9cf9dbe2f8" y="99.530803"/>
    </g>
   </g>
   <g id="text_4">
    <g clip-path="url(#pe04aa33649)">
     <!-- $\mathcal{L}_{1}$ -->
     <g style="fill:#1a1a1a;" transform="translate(93.401644 45.87069)scale(0.1 -0.1)">
      <defs>
       <path d="M 4070 915 
L 4179 800 
Q 3347 -45 2413 -45 
Q 2157 -45 1850 26 
Q 1395 122 1146 122 
Q 1005 122 672 61 
Q 339 0 192 0 
L 230 154 
Q 582 154 730 749 
L 1178 2566 
Q 1286 3008 1516 3353 
Q 1747 3699 2025 3894 
Q 2304 4090 2585 4189 
Q 2867 4288 3123 4288 
Q 3443 4288 3593 4083 
Q 3744 3878 3744 3584 
Q 3744 3347 3593 3200 
Q 3443 3053 3226 3053 
Q 3085 3053 2995 3149 
Q 2906 3245 2906 3379 
Q 2906 3482 2957 3552 
Q 3008 3622 3065 3644 
Q 3123 3667 3174 3705 
Q 3226 3744 3226 3789 
Q 3226 4032 2854 4032 
Q 2522 4032 2310 3785 
Q 2099 3539 1990 3132 
Q 1882 2726 1795 2284 
Q 1709 1843 1549 1363 
Q 1389 883 1158 589 
L 1158 563 
Q 1363 704 1888 704 
Q 2227 704 2460 544 
Q 2694 384 2963 384 
Q 3507 384 4070 915 
z
" id="STIXNonUnicode-Italic-e238" transform="scale(0.015625)"/>
       <path d="M 794 531 
L 1825 531 
L 1825 4091 
L 703 3866 
L 703 4441 
L 1819 4666 
L 2450 4666 
L 2450 531 
L 3481 531 
L 3481 0 
L 794 0 
L 794 531 
z
" id="DejaVuSans-31" transform="scale(0.015625)"/>
      </defs>
      <use xlink:href="#STIXNonUnicode-Italic-e238"/>
      <use transform="translate(70.257019 -16.40625)scale(0.7)" xlink:href="#DejaVuSans-31"/>
     </g>
    </g>
   </g>
   <g id="text_5">
    <g clip-path="url(#pe04aa33649)">
     <!-- $k_{cat}$ -->
     <g style="fill:#1a1a1a;" transform="translate(125.874356 27.064194)scale(0.1 -0.1)">
      <defs>
       <path d="M 1172 4863 
L 1747 4863 
L 1197 2028 
L 3169 3500 
L 3916 3500 
L 1716 1825 
L 3322 0 
L 2625 0 
L 1131 1709 
L 800 0 
L 225 0 
L 1172 4863 
z
" id="DejaVuSans-Oblique-6b" transform="scale(0.015625)"/>
       <path d="M 3431 3366 
L 3316 2797 
Q 3109 2947 2876 3022 
Q 2644 3097 2394 3097 
Q 2119 3097 1870 3000 
Q 1622 2903 1453 2725 
Q 1184 2453 1037 2087 
Q 891 1722 891 1331 
Q 891 859 1127 628 
Q 1363 397 1844 397 
Q 2081 397 2348 469 
Q 2616 541 2906 684 
L 2797 116 
Q 2547 13 2283 -39 
Q 2019 -91 1741 -91 
Q 1044 -91 669 257 
Q 294 606 294 1253 
Q 294 1797 489 2255 
Q 684 2713 1069 3078 
Q 1331 3328 1684 3456 
Q 2038 3584 2456 3584 
Q 2700 3584 2940 3529 
Q 3181 3475 3431 3366 
z
" id="DejaVuSans-Oblique-63" transform="scale(0.015625)"/>
       <path d="M 3438 1997 
L 3047 0 
L 2472 0 
L 2578 531 
Q 2325 219 2001 64 
Q 1678 -91 1281 -91 
Q 834 -91 548 182 
Q 263 456 263 884 
Q 263 1497 752 1853 
Q 1241 2209 2100 2209 
L 2900 2209 
L 2931 2363 
Q 2938 2388 2941 2417 
Q 2944 2447 2944 2509 
Q 2944 2788 2717 2942 
Q 2491 3097 2081 3097 
Q 1800 3097 1504 3025 
Q 1209 2953 897 2809 
L 997 3341 
Q 1322 3463 1633 3523 
Q 1944 3584 2234 3584 
Q 2853 3584 3176 3315 
Q 3500 3047 3500 2534 
Q 3500 2431 3484 2292 
Q 3469 2153 3438 1997 
z
M 2816 1759 
L 2241 1759 
Q 1534 1759 1195 1570 
Q 856 1381 856 984 
Q 856 709 1029 553 
Q 1203 397 1509 397 
Q 1978 397 2328 733 
Q 2678 1069 2791 1631 
L 2816 1759 
z
" id="DejaVuSans-Oblique-61" transform="scale(0.015625)"/>
      </defs>
      <use transform="translate(0 0.015625)" xlink:href="#DejaVuSans-Oblique-6b"/>
      <use transform="translate(57.910156 -16.390625)scale(0.7)" xlink:href="#DejaVuSans-Oblique-63"/>
      <use transform="translate(96.396484 -16.390625)scale(0.7)" xlink:href="#DejaVuSans-Oblique-61"/>
      <use transform="translate(139.291992 -16.390625)scale(0.7)" xlink:href="#DejaVuSans-Oblique-74"/>
     </g>
    </g>
   </g>
   <g id="text_6">
    <g clip-path="url(#pe04aa33649)">
     <!-- $K_M$ -->
     <g style="fill:#1a1a1a;" transform="translate(127.924356 64.677186)scale(0.1 -0.1)">
      <defs>
       <path d="M 1081 4666 
L 1716 4666 
L 1331 2700 
L 3781 4666 
L 4622 4666 
L 1850 2438 
L 3878 0 
L 3109 0 
L 1247 2272 
L 806 0 
L 172 0 
L 1081 4666 
z
" id="DejaVuSans-Oblique-4b" transform="scale(0.015625)"/>
       <path d="M 1081 4666 
L 2028 4666 
L 2572 1522 
L 4378 4666 
L 5350 4666 
L 4441 0 
L 3828 0 
L 4622 4091 
L 2791 897 
L 2175 897 
L 1581 4103 
L 788 0 
L 172 0 
L 1081 4666 
z
" id="DejaVuSans-Oblique-4d" transform="scale(0.015625)"/>
      </defs>
      <use transform="translate(0 0.09375)" xlink:href="#DejaVuSans-Oblique-4b"/>
      <use transform="translate(65.576172 -16.3125)scale(0.7)" xlink:href="#DejaVuSans-Oblique-4d"/>
     </g>
    </g>
   </g>
   <g id="text_7">
    <g clip-path="url(#pe04aa33649)">
     <!-- $\mathcal{L}_{2}$ -->
     <g style="fill:#1a1a1a;" transform="translate(93.401644 83.483682)scale(0.1 -0.1)">
      <defs>
       <path d="M 1228 531 
L 3431 531 
L 3431 0 
L 469 0 
L 469 531 
Q 828 903 1448 1529 
Q 2069 2156 2228 2338 
Q 2531 2678 2651 2914 
Q 2772 3150 2772 3378 
Q 2772 3750 2511 3984 
Q 2250 4219 1831 4219 
Q 1534 4219 1204 4116 
Q 875 4013 500 3803 
L 500 4441 
Q 881 4594 1212 4672 
Q 1544 4750 1819 4750 
Q 2544 4750 2975 4387 
Q 3406 4025 3406 3419 
Q 3406 3131 3298 2873 
Q 3191 2616 2906 2266 
Q 2828 2175 2409 1742 
Q 1991 1309 1228 531 
z
" id="DejaVuSans-32" transform="scale(0.015625)"/>
      </defs>
      <use xlink:href="#STIXNonUnicode-Italic-e238"/>
      <use transform="translate(70.257019 -16.40625)scale(0.7)" xlink:href="#DejaVuSans-32"/>
     </g>
    </g>
   </g>
   <g id="text_8">
    <g clip-path="url(#pe04aa33649)">
     <!-- $K_I$ -->
     <g style="fill:#1a1a1a;" transform="translate(129.924356 102.290178)scale(0.1 -0.1)">
      <defs>
       <path d="M 1081 4666 
L 1716 4666 
L 806 0 
L 172 0 
L 1081 4666 
z
" id="DejaVuSans-Oblique-49" transform="scale(0.015625)"/>
      </defs>
      <use transform="translate(0 0.09375)" xlink:href="#DejaVuSans-Oblique-4b"/>
      <use transform="translate(65.576172 -16.3125)scale(0.7)" xlink:href="#DejaVuSans-Oblique-49"/>
     </g>
    </g>
   </g>
   <g id="text_9">
    <!-- $\mathcal{L}(\mathbf{y}|\theta)$ -->
    <g style="fill:#262626;" transform="translate(101.438 9.953746)scale(0.1 -0.1)">
     <defs>
      <path d="M 1984 4856 
Q 1566 4138 1362 3434 
Q 1159 2731 1159 2009 
Q 1159 1288 1364 580 
Q 1569 -128 1984 -844 
L 1484 -844 
Q 1016 -109 783 600 
Q 550 1309 550 2009 
Q 550 2706 781 3412 
Q 1013 4119 1484 4856 
L 1984 4856 
z
" id="DejaVuSans-28" transform="scale(0.015625)"/>
      <path d="M 1344 4891 
L 1344 -1509 
L 813 -1509 
L 813 4891 
L 1344 4891 
z
" id="DejaVuSans-7c" transform="scale(0.015625)"/>
      <path d="M 2913 2219 
L 925 2219 
Q 791 1284 928 888 
Q 1100 400 1566 400 
Q 2034 400 2391 891 
Q 2703 1322 2913 2219 
z
M 3009 2750 
Q 3094 3638 2984 3950 
Q 2813 4444 2353 4444 
Q 1875 4444 1525 3956 
Q 1250 3563 1034 2750 
L 3009 2750 
z
M 2444 4913 
Q 3194 4913 3494 4250 
Q 3794 3591 3566 2422 
Q 3341 1256 2781 594 
Q 2225 -72 1475 -72 
Q 722 -72 425 594 
Q 128 1256 353 2422 
Q 581 3591 1134 4250 
Q 1691 4913 2444 4913 
z
" id="DejaVuSans-Oblique-3b8" transform="scale(0.015625)"/>
      <path d="M 513 4856 
L 1013 4856 
Q 1481 4119 1714 3412 
Q 1947 2706 1947 2009 
Q 1947 1309 1714 600 
Q 1481 -109 1013 -844 
L 513 -844 
Q 928 -128 1133 580 
Q 1338 1288 1338 2009 
Q 1338 2731 1133 3434 
Q 928 4138 513 4856 
z
" id="DejaVuSans-29" transform="scale(0.015625)"/>
     </defs>
     <use transform="translate(0 0.234375)" xlink:href="#STIXNonUnicode-Italic-e238"/>
     <use transform="translate(69.299988 0.234375)" xlink:href="#DejaVuSans-28"/>
     <use transform="translate(108.31366 0.234375)" xlink:href="#DejaVuSans-Bold-79"/>
     <use transform="translate(173.499207 0.234375)" xlink:href="#DejaVuSans-7c"/>
     <use transform="translate(207.190613 0.234375)" xlink:href="#DejaVuSans-Oblique-3b8"/>
     <use transform="translate(268.372253 0.234375)" xlink:href="#DejaVuSans-29"/>
    </g>
   </g>
  </g>
  <g id="axes_3">
   <g id="patch_10">
    <path d="M 173.129787 45.700571 
L 230.99976 45.700571 
L 230.99976 12.268661 
L 173.129787 12.268661 
z
" style="fill:#ffffff;"/>
   </g>
   <g id="matplotlib.axis_3">
    <g id="text_10">
     <!-- $k_{cat}$ -->
     <g style="fill:#262626;" transform="translate(195.536773 55.536171)scale(0.0768 -0.0768)">
      <use transform="translate(0 0.015625)" xlink:href="#DejaVuSans-Oblique-6b"/>
      <use transform="translate(57.910156 -16.390625)scale(0.7)" xlink:href="#DejaVuSans-Oblique-63"/>
      <use transform="translate(96.396484 -16.390625)scale(0.7)" xlink:href="#DejaVuSans-Oblique-61"/>
      <use transform="translate(139.291992 -16.390625)scale(0.7)" xlink:href="#DejaVuSans-Oblique-74"/>
     </g>
    </g>
   </g>
   <g id="matplotlib.axis_4">
    <g id="text_11">
     <!-- $P(k_{cat}|\mathbf{y})$ -->
     <g style="fill:#262626;" transform="translate(167.286587 44.613416)rotate(-90)scale(0.0768 -0.0768)">
      <defs>
       <path d="M 1081 4666 
L 2541 4666 
Q 3178 4666 3512 4369 
Q 3847 4072 3847 3500 
Q 3847 2731 3353 2303 
Q 2859 1875 1966 1875 
L 1172 1875 
L 806 0 
L 172 0 
L 1081 4666 
z
M 1613 4147 
L 1275 2394 
L 2069 2394 
Q 2606 2394 2893 2669 
Q 3181 2944 3181 3456 
Q 3181 3784 2986 3965 
Q 2791 4147 2438 4147 
L 1613 4147 
z
" id="DejaVuSans-Oblique-50" transform="scale(0.015625)"/>
      </defs>
      <use transform="translate(0 0.578125)" xlink:href="#DejaVuSans-Oblique-50"/>
      <use transform="translate(60.302734 0.578125)" xlink:href="#DejaVuSans-28"/>
      <use transform="translate(99.316406 0.578125)" xlink:href="#DejaVuSans-Oblique-6b"/>
      <use transform="translate(157.226562 -15.828125)scale(0.7)" xlink:href="#DejaVuSans-Oblique-63"/>
      <use transform="translate(195.712891 -15.828125)scale(0.7)" xlink:href="#DejaVuSans-Oblique-61"/>
      <use transform="translate(238.608398 -15.828125)scale(0.7)" xlink:href="#DejaVuSans-Oblique-74"/>
      <use transform="translate(268.789062 0.578125)" xlink:href="#DejaVuSans-7c"/>
      <use transform="translate(302.480469 0.578125)" xlink:href="#DejaVuSans-Bold-79"/>
      <use transform="translate(367.666016 0.578125)" xlink:href="#DejaVuSans-29"/>
     </g>
    </g>
   </g>
   <g id="PolyCollection_1">
    <defs>
     <path d="M 181.766118 -80.299889 
L 181.766118 -80.299429 
L 182.208946 -80.299429 
L 182.651774 -80.299429 
L 183.094603 -80.299429 
L 183.537431 -80.299429 
L 183.980259 -80.299429 
L 184.423088 -80.299429 
L 184.865916 -80.299429 
L 185.308745 -80.299429 
L 185.751573 -80.299429 
L 186.194401 -80.299429 
L 186.63723 -80.299429 
L 187.080058 -80.299429 
L 187.522886 -80.299429 
L 187.965715 -80.299429 
L 188.408543 -80.299429 
L 188.851372 -80.299429 
L 189.2942 -80.299429 
L 189.737028 -80.299429 
L 190.179857 -80.299429 
L 190.622685 -80.299429 
L 191.065514 -80.299429 
L 191.508342 -80.299429 
L 191.95117 -80.299429 
L 192.393999 -80.299429 
L 192.836827 -80.299429 
L 193.279655 -80.299429 
L 193.722484 -80.299429 
L 194.165312 -80.299429 
L 194.608141 -80.299429 
L 195.050969 -80.299429 
L 195.493797 -80.299429 
L 195.936626 -80.299429 
L 196.379454 -80.299429 
L 196.822282 -80.299429 
L 197.265111 -80.299429 
L 197.707939 -80.299429 
L 198.150768 -80.299429 
L 198.593596 -80.299429 
L 199.036424 -80.299429 
L 199.479253 -80.299429 
L 199.922081 -80.299429 
L 200.36491 -80.299429 
L 200.807738 -80.299429 
L 201.250566 -80.299429 
L 201.693395 -80.299429 
L 202.136223 -80.299429 
L 202.579051 -80.299429 
L 203.02188 -80.299429 
L 203.464708 -80.299429 
L 203.907537 -80.299429 
L 204.350365 -80.299429 
L 204.793193 -80.299429 
L 205.236022 -80.299429 
L 205.67885 -80.299429 
L 206.121678 -80.299429 
L 206.564507 -80.299429 
L 207.007335 -80.299429 
L 207.450164 -80.299429 
L 207.892992 -80.299429 
L 208.33582 -80.299429 
L 208.778649 -80.299429 
L 209.221477 -80.299429 
L 209.664305 -80.299429 
L 210.107134 -80.299429 
L 210.549962 -80.299429 
L 210.992791 -80.299429 
L 211.435619 -80.299429 
L 211.878447 -80.299429 
L 212.321276 -80.299429 
L 212.764104 -80.299429 
L 213.206933 -80.299429 
L 213.649761 -80.299429 
L 214.092589 -80.299429 
L 214.535418 -80.299429 
L 214.978246 -80.299429 
L 215.421074 -80.299429 
L 215.863903 -80.299429 
L 216.306731 -80.299429 
L 216.74956 -80.299429 
L 217.192388 -80.299429 
L 217.635216 -80.299429 
L 218.078045 -80.299429 
L 218.520873 -80.299429 
L 218.963701 -80.299429 
L 219.40653 -80.299429 
L 219.849358 -80.299429 
L 220.292187 -80.299429 
L 220.735015 -80.299429 
L 221.177843 -80.299429 
L 221.620672 -80.299429 
L 222.0635 -80.299429 
L 222.506328 -80.299429 
L 222.949157 -80.299429 
L 223.391985 -80.299429 
L 223.834814 -80.299429 
L 224.277642 -80.299429 
L 224.72047 -80.299429 
L 225.163299 -80.299429 
L 225.606127 -80.299429 
L 226.048956 -80.299429 
L 226.491784 -80.299429 
L 226.934612 -80.299429 
L 227.377441 -80.299429 
L 227.820269 -80.299429 
L 228.263097 -80.299429 
L 228.705926 -80.299429 
L 229.148754 -80.299429 
L 229.591583 -80.299429 
L 230.034411 -80.299429 
L 230.477239 -80.299429 
L 230.920068 -80.299429 
L 231.362896 -80.299429 
L 231.805724 -80.299429 
L 232.248553 -80.299429 
L 232.691381 -80.299429 
L 233.13421 -80.299429 
L 233.577038 -80.299429 
L 234.019866 -80.299429 
L 234.462695 -80.299429 
L 234.905523 -80.299429 
L 235.348351 -80.299429 
L 235.79118 -80.299429 
L 236.234008 -80.299429 
L 236.676837 -80.299429 
L 237.119665 -80.299429 
L 237.562493 -80.299429 
L 238.005322 -80.299429 
L 238.44815 -80.299429 
L 238.890979 -80.299429 
L 239.333807 -80.299429 
L 239.776635 -80.299429 
L 240.219464 -80.299429 
L 240.662292 -80.299429 
L 241.10512 -80.299429 
L 241.547949 -80.299429 
L 241.990777 -80.299429 
L 242.433606 -80.299429 
L 242.876434 -80.299429 
L 243.319262 -80.299429 
L 243.762091 -80.299429 
L 244.204919 -80.299429 
L 244.647747 -80.299429 
L 245.090576 -80.299429 
L 245.533404 -80.299429 
L 245.976233 -80.299429 
L 246.419061 -80.299429 
L 246.861889 -80.299429 
L 247.304718 -80.299429 
L 247.747546 -80.299429 
L 248.190374 -80.299429 
L 248.633203 -80.299429 
L 249.076031 -80.299429 
L 249.51886 -80.299429 
L 249.961688 -80.299429 
L 250.404516 -80.299429 
L 250.847345 -80.299429 
L 251.290173 -80.299429 
L 251.733002 -80.299429 
L 252.17583 -80.299429 
L 252.618658 -80.299429 
L 253.061487 -80.299429 
L 253.504315 -80.299429 
L 253.947143 -80.299429 
L 254.389972 -80.299429 
L 254.8328 -80.299429 
L 255.275629 -80.299429 
L 255.718457 -80.299429 
L 256.161285 -80.299429 
L 256.604114 -80.299429 
L 257.046942 -80.299429 
L 257.48977 -80.299429 
L 257.932599 -80.299429 
L 258.375427 -80.299429 
L 258.818256 -80.299429 
L 259.261084 -80.299429 
L 259.703912 -80.299429 
L 260.146741 -80.299429 
L 260.589569 -80.299429 
L 261.032397 -80.299429 
L 261.475226 -80.299429 
L 261.918054 -80.299429 
L 262.360883 -80.299429 
L 262.803711 -80.299429 
L 263.246539 -80.299429 
L 263.689368 -80.299429 
L 264.132196 -80.299429 
L 264.575025 -80.299429 
L 265.017853 -80.299429 
L 265.460681 -80.299429 
L 265.90351 -80.299429 
L 266.346338 -80.299429 
L 266.789166 -80.299429 
L 267.231995 -80.299429 
L 267.674823 -80.299429 
L 268.117652 -80.299429 
L 268.56048 -80.299429 
L 269.003308 -80.299429 
L 269.446137 -80.299429 
L 269.888965 -80.299429 
L 269.888965 -80.299673 
L 269.888965 -80.299673 
L 269.446137 -80.300146 
L 269.003308 -80.301244 
L 268.56048 -80.303398 
L 268.117652 -80.306923 
L 267.674823 -80.311647 
L 267.231995 -80.316627 
L 266.789166 -80.320329 
L 266.346338 -80.321359 
L 265.90351 -80.319296 
L 265.460681 -80.314969 
L 265.017853 -80.309924 
L 264.575025 -80.305555 
L 264.132196 -80.30254 
L 263.689368 -80.300881 
L 263.246539 -80.300296 
L 262.803711 -80.300608 
L 262.360883 -80.301916 
L 261.918054 -80.304506 
L 261.475226 -80.308508 
L 261.032397 -80.31347 
L 260.589569 -80.318182 
L 260.146741 -80.321053 
L 259.703912 -80.320959 
L 259.261084 -80.317936 
L 258.818256 -80.313164 
L 258.375427 -80.30823 
L 257.932599 -80.304298 
L 257.48977 -80.301755 
L 257.046942 -80.300389 
L 256.604114 -80.299772 
L 256.161285 -80.299539 
L 255.718457 -80.299477 
L 255.275629 -80.299514 
L 254.8328 -80.299695 
L 254.389972 -80.300197 
L 253.947143 -80.301354 
L 253.504315 -80.303596 
L 253.061487 -80.307218 
L 252.618658 -80.312 
L 252.17583 -80.316947 
L 251.733002 -80.320515 
L 251.290173 -80.321382 
L 250.847345 -80.319312 
L 250.404516 -80.315455 
L 249.961688 -80.311912 
L 249.51886 -80.310942 
L 249.076031 -80.314291 
L 248.633203 -80.322677 
L 248.190374 -80.335286 
L 247.747546 -80.349549 
L 247.304718 -80.361748 
L 246.861889 -80.36856 
L 246.419061 -80.368612 
L 245.976233 -80.36286 
L 245.533404 -80.35359 
L 245.090576 -80.343067 
L 244.647747 -80.332939 
L 244.204919 -80.324458 
L 243.762091 -80.318733 
L 243.319262 -80.316456 
L 242.876434 -80.31735 
L 242.433606 -80.319987 
L 241.990777 -80.322414 
L 241.547949 -80.323292 
L 241.10512 -80.322809 
L 240.662292 -80.322652 
L 240.219464 -80.325117 
L 239.776635 -80.332088 
L 239.333807 -80.344494 
L 238.890979 -80.362103 
L 238.44815 -80.38313 
L 238.005322 -80.403864 
L 237.562493 -80.419327 
L 237.119665 -80.425461 
L 236.676837 -80.421504 
L 236.234008 -80.410562 
L 235.79118 -80.39785 
L 235.348351 -80.388241 
L 234.905523 -80.384782 
L 234.462695 -80.388303 
L 234.019866 -80.397357 
L 233.577038 -80.408413 
L 233.13421 -80.416952 
L 232.691381 -80.41956 
L 232.248553 -80.415934 
L 231.805724 -80.40947 
L 231.362896 -80.405968 
L 230.920068 -80.411147 
L 230.477239 -80.428312 
L 230.034411 -80.457395 
L 229.591583 -80.495679 
L 229.148754 -80.539419 
L 228.705926 -80.585179 
L 228.263097 -80.630277 
L 227.820269 -80.672866 
L 227.377441 -80.712692 
L 226.934612 -80.752969 
L 226.491784 -80.802033 
L 226.048956 -80.872038 
L 225.606127 -80.973092 
L 225.163299 -81.105451 
L 224.72047 -81.256088 
L 224.277642 -81.404135 
L 223.834814 -81.532598 
L 223.391985 -81.637866 
L 222.949157 -81.730431 
L 222.506328 -81.828118 
L 222.0635 -81.949027 
L 221.620672 -82.10933 
L 221.177843 -82.323858 
L 220.735015 -82.603404 
L 220.292187 -82.946914 
L 219.849358 -83.334957 
L 219.40653 -83.733716 
L 218.963701 -84.111609 
L 218.520873 -84.459126 
L 218.078045 -84.797266 
L 217.635216 -85.167142 
L 217.192388 -85.607838 
L 216.74956 -86.139632 
L 216.306731 -86.765469 
L 215.863903 -87.48687 
L 215.421074 -88.315776 
L 214.978246 -89.266911 
L 214.535418 -90.335196 
L 214.092589 -91.479832 
L 213.649761 -92.632401 
L 213.206933 -93.725088 
L 212.764104 -94.718474 
L 212.321276 -95.610659 
L 211.878447 -96.425198 
L 211.435619 -97.1894 
L 210.992791 -97.917304 
L 210.549962 -98.604109 
L 210.107134 -99.229491 
L 209.664305 -99.763576 
L 209.221477 -100.171743 
L 208.778649 -100.417445 
L 208.33582 -100.463538 
L 207.892992 -100.27466 
L 207.450164 -99.82548 
L 207.007335 -99.115762 
L 206.564507 -98.18264 
L 206.121678 -97.095593 
L 205.67885 -95.931617 
L 205.236022 -94.747494 
L 204.793193 -93.570158 
L 204.350365 -92.408641 
L 203.907537 -91.271979 
L 203.464708 -90.176907 
L 203.02188 -89.143158 
L 202.579051 -88.184452 
L 202.136223 -87.30299 
L 201.693395 -86.490869 
L 201.250566 -85.737888 
L 200.807738 -85.040708 
L 200.36491 -84.405851 
L 199.922081 -83.843753 
L 199.479253 -83.3598 
L 199.036424 -82.950555 
L 198.593596 -82.606508 
L 198.150768 -82.316004 
L 197.707939 -82.066468 
L 197.265111 -81.844766 
L 196.822282 -81.639881 
L 196.379454 -81.446858 
L 195.936626 -81.267908 
L 195.493797 -81.108817 
L 195.050969 -80.973442 
L 194.608141 -80.860561 
L 194.165312 -80.764939 
L 193.722484 -80.681042 
L 193.279655 -80.60626 
L 192.836827 -80.541319 
L 192.393999 -80.488039 
L 191.95117 -80.446805 
L 191.508342 -80.416008 
L 191.065514 -80.393479 
L 190.622685 -80.378005 
L 190.179857 -80.369374 
L 189.737028 -80.36714 
L 189.2942 -80.369372 
L 188.851372 -80.372503 
L 188.408543 -80.372664 
L 187.965715 -80.367812 
L 187.522886 -80.359111 
L 187.080058 -80.350253 
L 186.63723 -80.344912 
L 186.194401 -80.344158 
L 185.751573 -80.345768 
L 185.308745 -80.345919 
L 184.865916 -80.341875 
L 184.423088 -80.333618 
L 183.980259 -80.323408 
L 183.537431 -80.313997 
L 183.094603 -80.30708 
L 182.651774 -80.302901 
L 182.208946 -80.300789 
L 181.766118 -80.299889 
z
" id="mc8a2cc6e66" style="stroke:#4c72b0;stroke-width:0.8;"/>
    </defs>
    <g clip-path="url(#pb0a78303a4)">
     <use style="fill:#4c72b0;fill-opacity:0.25;stroke:#4c72b0;stroke-width:0.8;" x="0" xlink:href="#mc8a2cc6e66" y="126"/>
    </g>
   </g>
   <g id="PolyCollection_2">
    <defs>
     <path d="M 152.267994 -80.299545 
L 152.267994 -80.299429 
L 153.359384 -80.299429 
L 154.450774 -80.299429 
L 155.542164 -80.299429 
L 156.633554 -80.299429 
L 157.724944 -80.299429 
L 158.816334 -80.299429 
L 159.907724 -80.299429 
L 160.999114 -80.299429 
L 162.090504 -80.299429 
L 163.181894 -80.299429 
L 164.273284 -80.299429 
L 165.364674 -80.299429 
L 166.456064 -80.299429 
L 167.547454 -80.299429 
L 168.638844 -80.299429 
L 169.730234 -80.299429 
L 170.821624 -80.299429 
L 171.913014 -80.299429 
L 173.004404 -80.299429 
L 174.095793 -80.299429 
L 175.187183 -80.299429 
L 176.278573 -80.299429 
L 177.369963 -80.299429 
L 178.461353 -80.299429 
L 179.552743 -80.299429 
L 180.644133 -80.299429 
L 181.735523 -80.299429 
L 182.826913 -80.299429 
L 183.918303 -80.299429 
L 185.009693 -80.299429 
L 186.101083 -80.299429 
L 187.192473 -80.299429 
L 188.283863 -80.299429 
L 189.375253 -80.299429 
L 190.466643 -80.299429 
L 191.558033 -80.299429 
L 192.649423 -80.299429 
L 193.740813 -80.299429 
L 194.832203 -80.299429 
L 195.923592 -80.299429 
L 197.014982 -80.299429 
L 198.106372 -80.299429 
L 199.197762 -80.299429 
L 200.289152 -80.299429 
L 201.380542 -80.299429 
L 202.471932 -80.299429 
L 203.563322 -80.299429 
L 204.654712 -80.299429 
L 205.746102 -80.299429 
L 206.837492 -80.299429 
L 207.928882 -80.299429 
L 209.020272 -80.299429 
L 210.111662 -80.299429 
L 211.203052 -80.299429 
L 212.294442 -80.299429 
L 213.385832 -80.299429 
L 214.477222 -80.299429 
L 215.568612 -80.299429 
L 216.660002 -80.299429 
L 217.751391 -80.299429 
L 218.842781 -80.299429 
L 219.934171 -80.299429 
L 221.025561 -80.299429 
L 222.116951 -80.299429 
L 223.208341 -80.299429 
L 224.299731 -80.299429 
L 225.391121 -80.299429 
L 226.482511 -80.299429 
L 227.573901 -80.299429 
L 228.665291 -80.299429 
L 229.756681 -80.299429 
L 230.848071 -80.299429 
L 231.939461 -80.299429 
L 233.030851 -80.299429 
L 234.122241 -80.299429 
L 235.213631 -80.299429 
L 236.305021 -80.299429 
L 237.396411 -80.299429 
L 238.487801 -80.299429 
L 239.579191 -80.299429 
L 240.67058 -80.299429 
L 241.76197 -80.299429 
L 242.85336 -80.299429 
L 243.94475 -80.299429 
L 245.03614 -80.299429 
L 246.12753 -80.299429 
L 247.21892 -80.299429 
L 248.31031 -80.299429 
L 249.4017 -80.299429 
L 250.49309 -80.299429 
L 251.58448 -80.299429 
L 252.67587 -80.299429 
L 253.76726 -80.299429 
L 254.85865 -80.299429 
L 255.95004 -80.299429 
L 257.04143 -80.299429 
L 258.13282 -80.299429 
L 259.22421 -80.299429 
L 260.3156 -80.299429 
L 261.40699 -80.299429 
L 262.498379 -80.299429 
L 263.589769 -80.299429 
L 264.681159 -80.299429 
L 265.772549 -80.299429 
L 266.863939 -80.299429 
L 267.955329 -80.299429 
L 269.046719 -80.299429 
L 270.138109 -80.299429 
L 271.229499 -80.299429 
L 272.320889 -80.299429 
L 273.412279 -80.299429 
L 274.503669 -80.299429 
L 275.595059 -80.299429 
L 276.686449 -80.299429 
L 277.777839 -80.299429 
L 278.869229 -80.299429 
L 279.960619 -80.299429 
L 281.052009 -80.299429 
L 282.143399 -80.299429 
L 283.234789 -80.299429 
L 284.326178 -80.299429 
L 285.417568 -80.299429 
L 286.508958 -80.299429 
L 287.600348 -80.299429 
L 288.691738 -80.299429 
L 289.783128 -80.299429 
L 290.874518 -80.299429 
L 291.965908 -80.299429 
L 293.057298 -80.299429 
L 294.148688 -80.299429 
L 295.240078 -80.299429 
L 296.331468 -80.299429 
L 297.422858 -80.299429 
L 298.514248 -80.299429 
L 299.605638 -80.299429 
L 300.697028 -80.299429 
L 301.788418 -80.299429 
L 302.879808 -80.299429 
L 303.971198 -80.299429 
L 305.062588 -80.299429 
L 306.153977 -80.299429 
L 307.245367 -80.299429 
L 308.336757 -80.299429 
L 309.428147 -80.299429 
L 310.519537 -80.299429 
L 311.610927 -80.299429 
L 312.702317 -80.299429 
L 313.793707 -80.299429 
L 314.885097 -80.299429 
L 315.976487 -80.299429 
L 317.067877 -80.299429 
L 318.159267 -80.299429 
L 319.250657 -80.299429 
L 320.342047 -80.299429 
L 321.433437 -80.299429 
L 322.524827 -80.299429 
L 323.616217 -80.299429 
L 324.707607 -80.299429 
L 325.798997 -80.299429 
L 326.890387 -80.299429 
L 327.981776 -80.299429 
L 329.073166 -80.299429 
L 330.164556 -80.299429 
L 331.255946 -80.299429 
L 332.347336 -80.299429 
L 333.438726 -80.299429 
L 334.530116 -80.299429 
L 335.621506 -80.299429 
L 336.712896 -80.299429 
L 337.804286 -80.299429 
L 338.895676 -80.299429 
L 339.987066 -80.299429 
L 341.078456 -80.299429 
L 342.169846 -80.299429 
L 343.261236 -80.299429 
L 344.352626 -80.299429 
L 345.444016 -80.299429 
L 346.535406 -80.299429 
L 347.626796 -80.299429 
L 348.718186 -80.299429 
L 349.809575 -80.299429 
L 350.900965 -80.299429 
L 351.992355 -80.299429 
L 353.083745 -80.299429 
L 354.175135 -80.299429 
L 355.266525 -80.299429 
L 356.357915 -80.299429 
L 357.449305 -80.299429 
L 358.540695 -80.299429 
L 359.632085 -80.299429 
L 360.723475 -80.299429 
L 361.814865 -80.299429 
L 362.906255 -80.299429 
L 363.997645 -80.299429 
L 365.089035 -80.299429 
L 366.180425 -80.299429 
L 367.271815 -80.299429 
L 368.363205 -80.299429 
L 369.454595 -80.299429 
L 369.454595 -80.299508 
L 369.454595 -80.299508 
L 368.363205 -80.299555 
L 367.271815 -80.299625 
L 366.180425 -80.299727 
L 365.089035 -80.29987 
L 363.997645 -80.300065 
L 362.906255 -80.300324 
L 361.814865 -80.300658 
L 360.723475 -80.301076 
L 359.632085 -80.301581 
L 358.540695 -80.302175 
L 357.449305 -80.30285 
L 356.357915 -80.303594 
L 355.266525 -80.304388 
L 354.175135 -80.30521 
L 353.083745 -80.306038 
L 351.992355 -80.306853 
L 350.900965 -80.307646 
L 349.809575 -80.30842 
L 348.718186 -80.309194 
L 347.626796 -80.310002 
L 346.535406 -80.310897 
L 345.444016 -80.31194 
L 344.352626 -80.313203 
L 343.261236 -80.314757 
L 342.169846 -80.316668 
L 341.078456 -80.318992 
L 339.987066 -80.321775 
L 338.895676 -80.325048 
L 337.804286 -80.328833 
L 336.712896 -80.333146 
L 335.621506 -80.338003 
L 334.530116 -80.343425 
L 333.438726 -80.349439 
L 332.347336 -80.356084 
L 331.255946 -80.363411 
L 330.164556 -80.371475 
L 329.073166 -80.380339 
L 327.981776 -80.39007 
L 326.890387 -80.400737 
L 325.798997 -80.412411 
L 324.707607 -80.425175 
L 323.616217 -80.439122 
L 322.524827 -80.454366 
L 321.433437 -80.471041 
L 320.342047 -80.489303 
L 319.250657 -80.509318 
L 318.159267 -80.531258 
L 317.067877 -80.555272 
L 315.976487 -80.581467 
L 314.885097 -80.609881 
L 313.793707 -80.640455 
L 312.702317 -80.673021 
L 311.610927 -80.707283 
L 310.519537 -80.742827 
L 309.428147 -80.779131 
L 308.336757 -80.815594 
L 307.245367 -80.851575 
L 306.153977 -80.886432 
L 305.062588 -80.91957 
L 303.971198 -80.950476 
L 302.879808 -80.978754 
L 301.788418 -81.004138 
L 300.697028 -81.026508 
L 299.605638 -81.045871 
L 298.514248 -81.062354 
L 297.422858 -81.07617 
L 296.331468 -81.087589 
L 295.240078 -81.096902 
L 294.148688 -81.104393 
L 293.057298 -81.110311 
L 291.965908 -81.114857 
L 290.874518 -81.118177 
L 289.783128 -81.120377 
L 288.691738 -81.121538 
L 287.600348 -81.121747 
L 286.508958 -81.121127 
L 285.417568 -81.119863 
L 284.326178 -81.118223 
L 283.234789 -81.116559 
L 282.143399 -81.1153 
L 281.052009 -81.114923 
L 279.960619 -81.115921 
L 278.869229 -81.118766 
L 277.777839 -81.123863 
L 276.686449 -81.131524 
L 275.595059 -81.141946 
L 274.503669 -81.155199 
L 273.412279 -81.171227 
L 272.320889 -81.189863 
L 271.229499 -81.210843 
L 270.138109 -81.233827 
L 269.046719 -81.258421 
L 267.955329 -81.284195 
L 266.863939 -81.310701 
L 265.772549 -81.337491 
L 264.681159 -81.364131 
L 263.589769 -81.390216 
L 262.498379 -81.415387 
L 261.40699 -81.439346 
L 260.3156 -81.461866 
L 259.22421 -81.4828 
L 258.13282 -81.502086 
L 257.04143 -81.519737 
L 255.95004 -81.535831 
L 254.85865 -81.550494 
L 253.76726 -81.563883 
L 252.67587 -81.576168 
L 251.58448 -81.58752 
L 250.49309 -81.598112 
L 249.4017 -81.60812 
L 248.31031 -81.617736 
L 247.21892 -81.627182 
L 246.12753 -81.636722 
L 245.03614 -81.646664 
L 243.94475 -81.657352 
L 242.85336 -81.669144 
L 241.76197 -81.68238 
L 240.67058 -81.697342 
L 239.579191 -81.714214 
L 238.487801 -81.733054 
L 237.396411 -81.753788 
L 236.305021 -81.776219 
L 235.213631 -81.800073 
L 234.122241 -81.825058 
L 233.030851 -81.850942 
L 231.939461 -81.877629 
L 230.848071 -81.905223 
L 229.756681 -81.934064 
L 228.665291 -81.964727 
L 227.573901 -81.997984 
L 226.482511 -82.034726 
L 225.391121 -82.075862 
L 224.299731 -82.122209 
L 223.208341 -82.174382 
L 222.116951 -82.232724 
L 221.025561 -82.297271 
L 219.934171 -82.367765 
L 218.842781 -82.44372 
L 217.751391 -82.524534 
L 216.660002 -82.609617 
L 215.568612 -82.698528 
L 214.477222 -82.791092 
L 213.385832 -82.88748 
L 212.294442 -82.988229 
L 211.203052 -83.094203 
L 210.111662 -83.206494 
L 209.020272 -83.326273 
L 207.928882 -83.454599 
L 206.837492 -83.592216 
L 205.746102 -83.739343 
L 204.654712 -83.895494 
L 203.563322 -84.059314 
L 202.471932 -84.228473 
L 201.380542 -84.399607 
L 200.289152 -84.568324 
L 199.197762 -84.729275 
L 198.106372 -84.876313 
L 197.014982 -85.002718 
L 195.923592 -85.101509 
L 194.832203 -85.165833 
L 193.740813 -85.189403 
L 192.649423 -85.166972 
L 191.558033 -85.094796 
L 190.466643 -84.971044 
L 189.375253 -84.796105 
L 188.283863 -84.572741 
L 187.192473 -84.306058 
L 186.101083 -84.003277 
L 185.009693 -83.673319 
L 183.918303 -83.326223 
L 182.826913 -82.972476 
L 181.735523 -82.62231 
L 180.644133 -82.285054 
L 179.552743 -81.968589 
L 178.461353 -81.678979 
L 177.369963 -81.420291 
L 176.278573 -81.194601 
L 175.187183 -81.002163 
L 174.095793 -80.841709 
L 173.004404 -80.710815 
L 171.913014 -80.606286 
L 170.821624 -80.52453 
L 169.730234 -80.461866 
L 168.638844 -80.414772 
L 167.547454 -80.380048 
L 166.456064 -80.354915 
L 165.364674 -80.337045 
L 164.273284 -80.324558 
L 163.181894 -80.315975 
L 162.090504 -80.310171 
L 160.999114 -80.306306 
L 159.907724 -80.30377 
L 158.816334 -80.302132 
L 157.724944 -80.301089 
L 156.633554 -80.300434 
L 155.542164 -80.300028 
L 154.450774 -80.299781 
L 153.359384 -80.299633 
L 152.267994 -80.299545 
z
" id="m025165577e" style="stroke:#c44e52;stroke-width:0.8;"/>
    </defs>
    <g clip-path="url(#pb0a78303a4)">
     <use style="fill:#c44e52;fill-opacity:0.25;stroke:#c44e52;stroke-width:0.8;" x="0" xlink:href="#m025165577e" y="126"/>
    </g>
   </g>
   <g id="PolyCollection_3">
    <defs>
     <path d="M 189.480471 -80.299799 
L 189.480471 -80.299429 
L 189.683138 -80.299429 
L 189.885806 -80.299429 
L 190.088473 -80.299429 
L 190.29114 -80.299429 
L 190.493808 -80.299429 
L 190.696475 -80.299429 
L 190.899142 -80.299429 
L 191.10181 -80.299429 
L 191.304477 -80.299429 
L 191.507144 -80.299429 
L 191.709811 -80.299429 
L 191.912479 -80.299429 
L 192.115146 -80.299429 
L 192.317813 -80.299429 
L 192.520481 -80.299429 
L 192.723148 -80.299429 
L 192.925815 -80.299429 
L 193.128483 -80.299429 
L 193.33115 -80.299429 
L 193.533817 -80.299429 
L 193.736485 -80.299429 
L 193.939152 -80.299429 
L 194.141819 -80.299429 
L 194.344487 -80.299429 
L 194.547154 -80.299429 
L 194.749821 -80.299429 
L 194.952489 -80.299429 
L 195.155156 -80.299429 
L 195.357823 -80.299429 
L 195.560491 -80.299429 
L 195.763158 -80.299429 
L 195.965825 -80.299429 
L 196.168493 -80.299429 
L 196.37116 -80.299429 
L 196.573827 -80.299429 
L 196.776495 -80.299429 
L 196.979162 -80.299429 
L 197.181829 -80.299429 
L 197.384497 -80.299429 
L 197.587164 -80.299429 
L 197.789831 -80.299429 
L 197.992499 -80.299429 
L 198.195166 -80.299429 
L 198.397833 -80.299429 
L 198.6005 -80.299429 
L 198.803168 -80.299429 
L 199.005835 -80.299429 
L 199.208502 -80.299429 
L 199.41117 -80.299429 
L 199.613837 -80.299429 
L 199.816504 -80.299429 
L 200.019172 -80.299429 
L 200.221839 -80.299429 
L 200.424506 -80.299429 
L 200.627174 -80.299429 
L 200.829841 -80.299429 
L 201.032508 -80.299429 
L 201.235176 -80.299429 
L 201.437843 -80.299429 
L 201.64051 -80.299429 
L 201.843178 -80.299429 
L 202.045845 -80.299429 
L 202.248512 -80.299429 
L 202.45118 -80.299429 
L 202.653847 -80.299429 
L 202.856514 -80.299429 
L 203.059182 -80.299429 
L 203.261849 -80.299429 
L 203.464516 -80.299429 
L 203.667184 -80.299429 
L 203.869851 -80.299429 
L 204.072518 -80.299429 
L 204.275186 -80.299429 
L 204.477853 -80.299429 
L 204.68052 -80.299429 
L 204.883188 -80.299429 
L 205.085855 -80.299429 
L 205.288522 -80.299429 
L 205.49119 -80.299429 
L 205.693857 -80.299429 
L 205.896524 -80.299429 
L 206.099191 -80.299429 
L 206.301859 -80.299429 
L 206.504526 -80.299429 
L 206.707193 -80.299429 
L 206.909861 -80.299429 
L 207.112528 -80.299429 
L 207.315195 -80.299429 
L 207.517863 -80.299429 
L 207.72053 -80.299429 
L 207.923197 -80.299429 
L 208.125865 -80.299429 
L 208.328532 -80.299429 
L 208.531199 -80.299429 
L 208.733867 -80.299429 
L 208.936534 -80.299429 
L 209.139201 -80.299429 
L 209.341869 -80.299429 
L 209.544536 -80.299429 
L 209.747203 -80.299429 
L 209.949871 -80.299429 
L 210.152538 -80.299429 
L 210.355205 -80.299429 
L 210.557873 -80.299429 
L 210.76054 -80.299429 
L 210.963207 -80.299429 
L 211.165875 -80.299429 
L 211.368542 -80.299429 
L 211.571209 -80.299429 
L 211.773877 -80.299429 
L 211.976544 -80.299429 
L 212.179211 -80.299429 
L 212.381879 -80.299429 
L 212.584546 -80.299429 
L 212.787213 -80.299429 
L 212.989881 -80.299429 
L 213.192548 -80.299429 
L 213.395215 -80.299429 
L 213.597882 -80.299429 
L 213.80055 -80.299429 
L 214.003217 -80.299429 
L 214.205884 -80.299429 
L 214.408552 -80.299429 
L 214.611219 -80.299429 
L 214.813886 -80.299429 
L 215.016554 -80.299429 
L 215.219221 -80.299429 
L 215.421888 -80.299429 
L 215.624556 -80.299429 
L 215.827223 -80.299429 
L 216.02989 -80.299429 
L 216.232558 -80.299429 
L 216.435225 -80.299429 
L 216.637892 -80.299429 
L 216.84056 -80.299429 
L 217.043227 -80.299429 
L 217.245894 -80.299429 
L 217.448562 -80.299429 
L 217.651229 -80.299429 
L 217.853896 -80.299429 
L 218.056564 -80.299429 
L 218.259231 -80.299429 
L 218.461898 -80.299429 
L 218.664566 -80.299429 
L 218.867233 -80.299429 
L 219.0699 -80.299429 
L 219.272568 -80.299429 
L 219.475235 -80.299429 
L 219.677902 -80.299429 
L 219.88057 -80.299429 
L 220.083237 -80.299429 
L 220.285904 -80.299429 
L 220.488571 -80.299429 
L 220.691239 -80.299429 
L 220.893906 -80.299429 
L 221.096573 -80.299429 
L 221.299241 -80.299429 
L 221.501908 -80.299429 
L 221.704575 -80.299429 
L 221.907243 -80.299429 
L 222.10991 -80.299429 
L 222.312577 -80.299429 
L 222.515245 -80.299429 
L 222.717912 -80.299429 
L 222.920579 -80.299429 
L 223.123247 -80.299429 
L 223.325914 -80.299429 
L 223.528581 -80.299429 
L 223.731249 -80.299429 
L 223.933916 -80.299429 
L 224.136583 -80.299429 
L 224.339251 -80.299429 
L 224.541918 -80.299429 
L 224.744585 -80.299429 
L 224.947253 -80.299429 
L 225.14992 -80.299429 
L 225.352587 -80.299429 
L 225.555255 -80.299429 
L 225.757922 -80.299429 
L 225.960589 -80.299429 
L 226.163257 -80.299429 
L 226.365924 -80.299429 
L 226.568591 -80.299429 
L 226.771259 -80.299429 
L 226.973926 -80.299429 
L 227.176593 -80.299429 
L 227.379261 -80.299429 
L 227.581928 -80.299429 
L 227.784595 -80.299429 
L 227.987262 -80.299429 
L 228.18993 -80.299429 
L 228.392597 -80.299429 
L 228.595264 -80.299429 
L 228.797932 -80.299429 
L 229.000599 -80.299429 
L 229.203266 -80.299429 
L 229.405934 -80.299429 
L 229.608601 -80.299429 
L 229.811268 -80.299429 
L 229.811268 -80.299797 
L 229.811268 -80.299797 
L 229.608601 -80.300212 
L 229.405934 -80.300986 
L 229.203266 -80.302316 
L 229.000599 -80.304422 
L 228.797932 -80.307485 
L 228.595264 -80.311551 
L 228.392597 -80.316443 
L 228.18993 -80.321703 
L 227.987262 -80.326628 
L 227.784595 -80.330408 
L 227.581928 -80.332342 
L 227.379261 -80.332049 
L 227.176593 -80.329599 
L 226.973926 -80.325493 
L 226.771259 -80.32052 
L 226.568591 -80.315547 
L 226.365924 -80.311334 
L 226.163257 -80.30843 
L 225.960589 -80.307164 
L 225.757922 -80.307678 
L 225.555255 -80.309976 
L 225.352587 -80.313922 
L 225.14992 -80.319236 
L 224.947253 -80.325504 
L 224.744585 -80.332249 
L 224.541918 -80.339059 
L 224.339251 -80.345715 
L 224.136583 -80.352249 
L 223.933916 -80.358857 
L 223.731249 -80.365713 
L 223.528581 -80.372781 
L 223.325914 -80.379728 
L 223.123247 -80.386028 
L 222.920579 -80.391161 
L 222.717912 -80.394816 
L 222.515245 -80.396963 
L 222.312577 -80.397803 
L 222.10991 -80.397704 
L 221.907243 -80.397235 
L 221.704575 -80.39735 
L 221.501908 -80.399611 
L 221.299241 -80.406272 
L 221.096573 -80.420088 
L 220.893906 -80.443854 
L 220.691239 -80.479834 
L 220.488571 -80.529277 
L 220.285904 -80.592187 
L 220.083237 -80.667346 
L 219.88057 -80.752524 
L 219.677902 -80.84477 
L 219.475235 -80.94076 
L 219.272568 -81.037223 
L 219.0699 -81.13144 
L 218.867233 -81.221716 
L 218.664566 -81.307643 
L 218.461898 -81.389943 
L 218.259231 -81.469869 
L 218.056564 -81.548347 
L 217.853896 -81.625274 
L 217.651229 -81.699398 
L 217.448562 -81.769048 
L 217.245894 -81.833526 
L 217.043227 -81.894593 
L 216.84056 -81.957208 
L 216.637892 -82.028885 
L 216.435225 -82.117654 
L 216.232558 -82.229345 
L 216.02989 -82.365453 
L 215.827223 -82.522732 
L 215.624556 -82.694977 
L 215.421888 -82.876412 
L 215.219221 -83.065327 
L 215.016554 -83.266399 
L 214.813886 -83.490637 
L 214.611219 -83.752836 
L 214.408552 -84.067418 
L 214.205884 -84.44415 
L 214.003217 -84.885219 
L 213.80055 -85.384626 
L 213.597882 -85.930019 
L 213.395215 -86.506318 
L 213.192548 -87.099993 
L 212.989881 -87.702723 
L 212.787213 -88.313298 
L 212.584546 -88.936966 
L 212.381879 -89.582069 
L 212.179211 -90.254782 
L 211.976544 -90.953801 
L 211.773877 -91.667387 
L 211.571209 -92.374668 
L 211.368542 -93.051474 
L 211.165875 -93.678866 
L 210.963207 -94.251049 
L 210.76054 -94.779349 
L 210.557873 -95.290502 
L 210.355205 -95.819779 
L 210.152538 -96.401572 
L 209.949871 -97.060829 
L 209.747203 -97.808087 
L 209.544536 -98.639068 
L 209.341869 -99.537916 
L 209.139201 -100.482064 
L 208.936534 -101.446772 
L 208.733867 -102.408302 
L 208.531199 -103.34554 
L 208.328532 -104.240353 
L 208.125865 -105.076965 
L 207.923197 -105.840721 
L 207.72053 -106.5169 
L 207.517863 -107.090495 
L 207.315195 -107.547659 
L 207.112528 -107.8786 
L 206.909861 -108.080622 
L 206.707193 -108.159354 
L 206.504526 -108.126764 
L 206.301859 -107.996075 
L 206.099191 -107.775612 
L 205.896524 -107.464637 
L 205.693857 -107.053744 
L 205.49119 -106.530243 
L 205.288522 -105.88637 
L 205.085855 -105.126476 
L 204.883188 -104.269645 
L 204.68052 -103.346367 
L 204.477853 -102.390795 
L 204.275186 -101.43205 
L 204.072518 -100.488151 
L 203.869851 -99.564494 
L 203.667184 -98.65661 
L 203.464516 -97.755302 
L 203.261849 -96.851885 
L 203.059182 -95.941927 
L 202.856514 -95.026886 
L 202.653847 -94.113888 
L 202.45118 -93.214128 
L 202.248512 -92.340398 
L 202.045845 -91.504193 
L 201.843178 -90.712955 
L 201.64051 -89.968227 
L 201.437843 -89.265426 
L 201.235176 -88.595517 
L 201.032508 -87.948163 
L 200.829841 -87.315308 
L 200.627174 -86.694005 
L 200.424506 -86.087603 
L 200.221839 -85.505089 
L 200.019172 -84.95894 
L 199.816504 -84.462164 
L 199.613837 -84.02528 
L 199.41117 -83.653862 
L 199.208502 -83.347164 
L 199.005835 -83.098109 
L 198.803168 -82.894707 
L 198.6005 -82.72253 
L 198.397833 -82.567604 
L 198.195166 -82.41886 
L 197.992499 -82.269494 
L 197.789831 -82.116999 
L 197.587164 -81.962178 
L 197.384497 -81.807782 
L 197.181829 -81.657412 
L 196.979162 -81.514938 
L 196.776495 -81.384278 
L 196.573827 -81.269132 
L 196.37116 -81.172371 
L 196.168493 -81.095172 
L 195.965825 -81.036292 
L 195.763158 -80.99196 
L 195.560491 -80.956611 
L 195.357823 -80.924264 
L 195.155156 -80.890027 
L 194.952489 -80.851156 
L 194.749821 -80.807317 
L 194.547154 -80.760079 
L 194.344487 -80.711958 
L 194.141819 -80.665442 
L 193.939152 -80.622308 
L 193.736485 -80.583361 
L 193.533817 -80.54854 
L 193.33115 -80.51725 
L 193.128483 -80.488766 
L 192.925815 -80.462567 
L 192.723148 -80.438496 
L 192.520481 -80.416698 
L 192.317813 -80.397407 
L 192.115146 -80.380711 
L 191.912479 -80.366425 
L 191.709811 -80.354144 
L 191.507144 -80.343413 
L 191.304477 -80.333909 
L 191.10181 -80.325524 
L 190.899142 -80.31832 
L 190.696475 -80.312414 
L 190.493808 -80.307855 
L 190.29114 -80.304571 
L 190.088473 -80.302372 
L 189.885806 -80.301006 
L 189.683138 -80.300219 
L 189.480471 -80.299799 
z
" id="m68293c7afb" style="stroke:#715894;stroke-width:0.8;"/>
    </defs>
    <g clip-path="url(#pb0a78303a4)">
     <use style="fill:#715894;fill-opacity:0.5;stroke:#715894;stroke-width:0.8;" x="0" xlink:href="#m68293c7afb" y="126"/>
    </g>
   </g>
   <g id="patch_11">
    <path d="M 173.129787 45.700571 
L 173.129787 12.268661 
" style="fill:none;stroke:#262626;stroke-linecap:square;stroke-linejoin:miter;"/>
   </g>
   <g id="patch_12">
    <path d="M 173.129787 45.700571 
L 230.99976 45.700571 
" style="fill:none;stroke:#262626;stroke-linecap:square;stroke-linejoin:miter;"/>
   </g>
   <g id="text_12">
    <!-- $P(\theta|\mathbf{y})$ -->
    <g style="fill:#262626;" transform="translate(187.114773 10.572513)scale(0.1 -0.1)">
     <use transform="translate(0 0.234375)" xlink:href="#DejaVuSans-Oblique-50"/>
     <use transform="translate(60.302734 0.234375)" xlink:href="#DejaVuSans-28"/>
     <use transform="translate(99.316406 0.234375)" xlink:href="#DejaVuSans-Oblique-3b8"/>
     <use transform="translate(160.498047 0.234375)" xlink:href="#DejaVuSans-7c"/>
     <use transform="translate(194.189453 0.234375)" xlink:href="#DejaVuSans-Bold-79"/>
     <use transform="translate(259.375 0.234375)" xlink:href="#DejaVuSans-29"/>
    </g>
   </g>
  </g>
  <g id="axes_4">
   <g id="patch_13">
    <path d="M 173.129787 111.56696 
L 230.99976 111.56696 
L 230.99976 75.134811 
L 173.129787 75.134811 
z
" style="fill:#ffffff;"/>
   </g>
   <g id="matplotlib.axis_5">
    <g id="text_13">
     <!-- $K_{I}$ -->
     <g style="fill:#262626;" transform="translate(198.647173 121.40256)scale(0.0768 -0.0768)">
      <use transform="translate(0 0.09375)" xlink:href="#DejaVuSans-Oblique-4b"/>
      <use transform="translate(65.576172 -16.3125)scale(0.7)" xlink:href="#DejaVuSans-Oblique-49"/>
     </g>
    </g>
   </g>
   <g id="matplotlib.axis_6">
    <g id="text_14">
     <!-- $P(K_{I}|\mathbf{y})$ -->
     <g style="fill:#262626;" transform="translate(167.286587 105.907685)rotate(-90)scale(0.0768 -0.0768)">
      <use transform="translate(0 0.578125)" xlink:href="#DejaVuSans-Oblique-50"/>
      <use transform="translate(60.302734 0.578125)" xlink:href="#DejaVuSans-28"/>
      <use transform="translate(99.316406 0.578125)" xlink:href="#DejaVuSans-Oblique-4b"/>
      <use transform="translate(164.892578 -15.828125)scale(0.7)" xlink:href="#DejaVuSans-Oblique-49"/>
      <use transform="translate(188.271484 0.578125)" xlink:href="#DejaVuSans-7c"/>
      <use transform="translate(221.962891 0.578125)" xlink:href="#DejaVuSans-Bold-79"/>
      <use transform="translate(287.148438 0.578125)" xlink:href="#DejaVuSans-29"/>
     </g>
    </g>
   </g>
   <g id="PolyCollection_4">
    <defs>
     <path d="M 169.450317 -14.440754 
L 169.450317 -14.43304 
L 169.887159 -14.43304 
L 170.324001 -14.43304 
L 170.760843 -14.43304 
L 171.197685 -14.43304 
L 171.634527 -14.43304 
L 172.071369 -14.43304 
L 172.508211 -14.43304 
L 172.945053 -14.43304 
L 173.381895 -14.43304 
L 173.818737 -14.43304 
L 174.255579 -14.43304 
L 174.692421 -14.43304 
L 175.129264 -14.43304 
L 175.566106 -14.43304 
L 176.002948 -14.43304 
L 176.43979 -14.43304 
L 176.876632 -14.43304 
L 177.313474 -14.43304 
L 177.750316 -14.43304 
L 178.187158 -14.43304 
L 178.624 -14.43304 
L 179.060842 -14.43304 
L 179.497684 -14.43304 
L 179.934526 -14.43304 
L 180.371369 -14.43304 
L 180.808211 -14.43304 
L 181.245053 -14.43304 
L 181.681895 -14.43304 
L 182.118737 -14.43304 
L 182.555579 -14.43304 
L 182.992421 -14.43304 
L 183.429263 -14.43304 
L 183.866105 -14.43304 
L 184.302947 -14.43304 
L 184.739789 -14.43304 
L 185.176631 -14.43304 
L 185.613473 -14.43304 
L 186.050316 -14.43304 
L 186.487158 -14.43304 
L 186.924 -14.43304 
L 187.360842 -14.43304 
L 187.797684 -14.43304 
L 188.234526 -14.43304 
L 188.671368 -14.43304 
L 189.10821 -14.43304 
L 189.545052 -14.43304 
L 189.981894 -14.43304 
L 190.418736 -14.43304 
L 190.855578 -14.43304 
L 191.29242 -14.43304 
L 191.729263 -14.43304 
L 192.166105 -14.43304 
L 192.602947 -14.43304 
L 193.039789 -14.43304 
L 193.476631 -14.43304 
L 193.913473 -14.43304 
L 194.350315 -14.43304 
L 194.787157 -14.43304 
L 195.223999 -14.43304 
L 195.660841 -14.43304 
L 196.097683 -14.43304 
L 196.534525 -14.43304 
L 196.971368 -14.43304 
L 197.40821 -14.43304 
L 197.845052 -14.43304 
L 198.281894 -14.43304 
L 198.718736 -14.43304 
L 199.155578 -14.43304 
L 199.59242 -14.43304 
L 200.029262 -14.43304 
L 200.466104 -14.43304 
L 200.902946 -14.43304 
L 201.339788 -14.43304 
L 201.77663 -14.43304 
L 202.213472 -14.43304 
L 202.650315 -14.43304 
L 203.087157 -14.43304 
L 203.523999 -14.43304 
L 203.960841 -14.43304 
L 204.397683 -14.43304 
L 204.834525 -14.43304 
L 205.271367 -14.43304 
L 205.708209 -14.43304 
L 206.145051 -14.43304 
L 206.581893 -14.43304 
L 207.018735 -14.43304 
L 207.455577 -14.43304 
L 207.89242 -14.43304 
L 208.329262 -14.43304 
L 208.766104 -14.43304 
L 209.202946 -14.43304 
L 209.639788 -14.43304 
L 210.07663 -14.43304 
L 210.513472 -14.43304 
L 210.950314 -14.43304 
L 211.387156 -14.43304 
L 211.823998 -14.43304 
L 212.26084 -14.43304 
L 212.697682 -14.43304 
L 213.134524 -14.43304 
L 213.571367 -14.43304 
L 214.008209 -14.43304 
L 214.445051 -14.43304 
L 214.881893 -14.43304 
L 215.318735 -14.43304 
L 215.755577 -14.43304 
L 216.192419 -14.43304 
L 216.629261 -14.43304 
L 217.066103 -14.43304 
L 217.502945 -14.43304 
L 217.939787 -14.43304 
L 218.376629 -14.43304 
L 218.813472 -14.43304 
L 219.250314 -14.43304 
L 219.687156 -14.43304 
L 220.123998 -14.43304 
L 220.56084 -14.43304 
L 220.997682 -14.43304 
L 221.434524 -14.43304 
L 221.871366 -14.43304 
L 222.308208 -14.43304 
L 222.74505 -14.43304 
L 223.181892 -14.43304 
L 223.618734 -14.43304 
L 224.055576 -14.43304 
L 224.492419 -14.43304 
L 224.929261 -14.43304 
L 225.366103 -14.43304 
L 225.802945 -14.43304 
L 226.239787 -14.43304 
L 226.676629 -14.43304 
L 227.113471 -14.43304 
L 227.550313 -14.43304 
L 227.987155 -14.43304 
L 228.423997 -14.43304 
L 228.860839 -14.43304 
L 229.297681 -14.43304 
L 229.734523 -14.43304 
L 230.171366 -14.43304 
L 230.608208 -14.43304 
L 231.04505 -14.43304 
L 231.481892 -14.43304 
L 231.918734 -14.43304 
L 232.355576 -14.43304 
L 232.792418 -14.43304 
L 233.22926 -14.43304 
L 233.666102 -14.43304 
L 234.102944 -14.43304 
L 234.539786 -14.43304 
L 234.976628 -14.43304 
L 235.413471 -14.43304 
L 235.850313 -14.43304 
L 236.287155 -14.43304 
L 236.723997 -14.43304 
L 237.160839 -14.43304 
L 237.597681 -14.43304 
L 238.034523 -14.43304 
L 238.471365 -14.43304 
L 238.908207 -14.43304 
L 239.345049 -14.43304 
L 239.781891 -14.43304 
L 240.218733 -14.43304 
L 240.655575 -14.43304 
L 241.092418 -14.43304 
L 241.52926 -14.43304 
L 241.966102 -14.43304 
L 242.402944 -14.43304 
L 242.839786 -14.43304 
L 243.276628 -14.43304 
L 243.71347 -14.43304 
L 244.150312 -14.43304 
L 244.587154 -14.43304 
L 245.023996 -14.43304 
L 245.460838 -14.43304 
L 245.89768 -14.43304 
L 246.334523 -14.43304 
L 246.771365 -14.43304 
L 247.208207 -14.43304 
L 247.645049 -14.43304 
L 248.081891 -14.43304 
L 248.518733 -14.43304 
L 248.955575 -14.43304 
L 249.392417 -14.43304 
L 249.829259 -14.43304 
L 250.266101 -14.43304 
L 250.702943 -14.43304 
L 251.139785 -14.43304 
L 251.576627 -14.43304 
L 252.01347 -14.43304 
L 252.450312 -14.43304 
L 252.887154 -14.43304 
L 253.323996 -14.43304 
L 253.760838 -14.43304 
L 254.19768 -14.43304 
L 254.634522 -14.43304 
L 255.071364 -14.43304 
L 255.508206 -14.43304 
L 255.945048 -14.43304 
L 256.38189 -14.43304 
L 256.38189 -14.441529 
L 256.38189 -14.441529 
L 255.945048 -14.445495 
L 255.508206 -14.451073 
L 255.071364 -14.458802 
L 254.634522 -14.469361 
L 254.19768 -14.483579 
L 253.760838 -14.502448 
L 253.323996 -14.52713 
L 252.887154 -14.558954 
L 252.450312 -14.599396 
L 252.01347 -14.650051 
L 251.576627 -14.712586 
L 251.139785 -14.788674 
L 250.702943 -14.879917 
L 250.266101 -14.987752 
L 249.829259 -15.113349 
L 249.392417 -15.257507 
L 248.955575 -15.420558 
L 248.518733 -15.602276 
L 248.081891 -15.801818 
L 247.645049 -16.017688 
L 247.208207 -16.24774 
L 246.771365 -16.48922 
L 246.334523 -16.738848 
L 245.89768 -16.992937 
L 245.460838 -17.247544 
L 245.023996 -17.49864 
L 244.587154 -17.742295 
L 244.150312 -17.974856 
L 243.71347 -18.193109 
L 243.276628 -18.394419 
L 242.839786 -18.576824 
L 242.402944 -18.739098 
L 241.966102 -18.880757 
L 241.52926 -19.002028 
L 241.092418 -19.103775 
L 240.655575 -19.187395 
L 240.218733 -19.254689 
L 239.781891 -19.307724 
L 239.345049 -19.348693 
L 238.908207 -19.379783 
L 238.471365 -19.403062 
L 238.034523 -19.420387 
L 237.597681 -19.433341 
L 237.160839 -19.443196 
L 236.723997 -19.450905 
L 236.287155 -19.457114 
L 235.850313 -19.462196 
L 235.413471 -19.466303 
L 234.976628 -19.469424 
L 234.539786 -19.471446 
L 234.102944 -19.472218 
L 233.666102 -19.47161 
L 233.22926 -19.469564 
L 232.792418 -19.46613 
L 232.355576 -19.461493 
L 231.918734 -19.455987 
L 231.481892 -19.450084 
L 231.04505 -19.44438 
L 230.608208 -19.439558 
L 230.171366 -19.436345 
L 229.734523 -19.435455 
L 229.297681 -19.43753 
L 228.860839 -19.443079 
L 228.423997 -19.452427 
L 227.987155 -19.46566 
L 227.550313 -19.482603 
L 227.113471 -19.502796 
L 226.676629 -19.525508 
L 226.239787 -19.549759 
L 225.802945 -19.574367 
L 225.366103 -19.598015 
L 224.929261 -19.619327 
L 224.492419 -19.636952 
L 224.055576 -19.64965 
L 223.618734 -19.656372 
L 223.181892 -19.656323 
L 222.74505 -19.649018 
L 222.308208 -19.634307 
L 221.871366 -19.612379 
L 221.434524 -19.58375 
L 220.997682 -19.549222 
L 220.56084 -19.509835 
L 220.123998 -19.466796 
L 219.687156 -19.421419 
L 219.250314 -19.37505 
L 218.813472 -19.32901 
L 218.376629 -19.284541 
L 217.939787 -19.242767 
L 217.502945 -19.204672 
L 217.066103 -19.171082 
L 216.629261 -19.142671 
L 216.192419 -19.119964 
L 215.755577 -19.103348 
L 215.318735 -19.093087 
L 214.881893 -19.08933 
L 214.445051 -19.092115 
L 214.008209 -19.101371 
L 213.571367 -19.116913 
L 213.134524 -19.138428 
L 212.697682 -19.16547 
L 212.26084 -19.197448 
L 211.823998 -19.23362 
L 211.387156 -19.2731 
L 210.950314 -19.314872 
L 210.513472 -19.357812 
L 210.07663 -19.400732 
L 209.639788 -19.442421 
L 209.202946 -19.481709 
L 208.766104 -19.517517 
L 208.329262 -19.548924 
L 207.89242 -19.575216 
L 207.455577 -19.595928 
L 207.018735 -19.610872 
L 206.581893 -19.620144 
L 206.145051 -19.624117 
L 205.708209 -19.623408 
L 205.271367 -19.618829 
L 204.834525 -19.611327 
L 204.397683 -19.601911 
L 203.960841 -19.591579 
L 203.523999 -19.581246 
L 203.087157 -19.571683 
L 202.650315 -19.563474 
L 202.213472 -19.556983 
L 201.77663 -19.552354 
L 201.339788 -19.549519 
L 200.902946 -19.548235 
L 200.466104 -19.548129 
L 200.029262 -19.548751 
L 199.59242 -19.54963 
L 199.155578 -19.550329 
L 198.718736 -19.550486 
L 198.281894 -19.549844 
L 197.845052 -19.548261 
L 197.40821 -19.545712 
L 196.971368 -19.542271 
L 196.534525 -19.538081 
L 196.097683 -19.53333 
L 195.660841 -19.528214 
L 195.223999 -19.522913 
L 194.787157 -19.517571 
L 194.350315 -19.51229 
L 193.913473 -19.507131 
L 193.476631 -19.50213 
L 193.039789 -19.497312 
L 192.602947 -19.492713 
L 192.166105 -19.488392 
L 191.729263 -19.48444 
L 191.29242 -19.480973 
L 190.855578 -19.478108 
L 190.418736 -19.475928 
L 189.981894 -19.474432 
L 189.545052 -19.473472 
L 189.10821 -19.472691 
L 188.671368 -19.471465 
L 188.234526 -19.46885 
L 187.797684 -19.463553 
L 187.360842 -19.453927 
L 186.924 -19.437996 
L 186.487158 -19.413506 
L 186.050316 -19.378017 
L 185.613473 -19.329012 
L 185.176631 -19.264038 
L 184.739789 -19.180852 
L 184.302947 -19.077578 
L 183.866105 -18.952848 
L 183.429263 -18.80593 
L 182.992421 -18.636823 
L 182.555579 -18.446313 
L 182.118737 -18.235988 
L 181.681895 -18.008198 
L 181.245053 -17.765977 
L 180.808211 -17.512916 
L 180.371369 -17.253009 
L 179.934526 -16.990468 
L 179.497684 -16.729534 
L 179.060842 -16.474287 
L 178.624 -16.228479 
L 178.187158 -15.995381 
L 177.750316 -15.777679 
L 177.313474 -15.577398 
L 176.876632 -15.395881 
L 176.43979 -15.233795 
L 176.002948 -15.091183 
L 175.566106 -14.967536 
L 175.129264 -14.861891 
L 174.692421 -14.772934 
L 174.255579 -14.699113 
L 173.818737 -14.638734 
L 173.381895 -14.590062 
L 172.945053 -14.551391 
L 172.508211 -14.521107 
L 172.071369 -14.49773 
L 171.634527 -14.479945 
L 171.197685 -14.466608 
L 170.760843 -14.456749 
L 170.324001 -14.449565 
L 169.887159 -14.444407 
L 169.450317 -14.440754 
z
" id="m90e67c4594" style="stroke:#4c72b0;stroke-width:0.8;"/>
    </defs>
    <g clip-path="url(#pfb779c3e6c)">
     <use style="fill:#4c72b0;fill-opacity:0.25;stroke:#4c72b0;stroke-width:0.8;" x="0" xlink:href="#m90e67c4594" y="126"/>
    </g>
   </g>
   <g id="PolyCollection_5">
    <defs>
     <path d="M 169.208336 -14.454371 
L 169.208336 -14.43304 
L 169.647571 -14.43304 
L 170.086807 -14.43304 
L 170.526043 -14.43304 
L 170.965279 -14.43304 
L 171.404515 -14.43304 
L 171.843751 -14.43304 
L 172.282987 -14.43304 
L 172.722222 -14.43304 
L 173.161458 -14.43304 
L 173.600694 -14.43304 
L 174.03993 -14.43304 
L 174.479166 -14.43304 
L 174.918402 -14.43304 
L 175.357637 -14.43304 
L 175.796873 -14.43304 
L 176.236109 -14.43304 
L 176.675345 -14.43304 
L 177.114581 -14.43304 
L 177.553817 -14.43304 
L 177.993052 -14.43304 
L 178.432288 -14.43304 
L 178.871524 -14.43304 
L 179.31076 -14.43304 
L 179.749996 -14.43304 
L 180.189232 -14.43304 
L 180.628468 -14.43304 
L 181.067703 -14.43304 
L 181.506939 -14.43304 
L 181.946175 -14.43304 
L 182.385411 -14.43304 
L 182.824647 -14.43304 
L 183.263883 -14.43304 
L 183.703118 -14.43304 
L 184.142354 -14.43304 
L 184.58159 -14.43304 
L 185.020826 -14.43304 
L 185.460062 -14.43304 
L 185.899298 -14.43304 
L 186.338533 -14.43304 
L 186.777769 -14.43304 
L 187.217005 -14.43304 
L 187.656241 -14.43304 
L 188.095477 -14.43304 
L 188.534713 -14.43304 
L 188.973948 -14.43304 
L 189.413184 -14.43304 
L 189.85242 -14.43304 
L 190.291656 -14.43304 
L 190.730892 -14.43304 
L 191.170128 -14.43304 
L 191.609364 -14.43304 
L 192.048599 -14.43304 
L 192.487835 -14.43304 
L 192.927071 -14.43304 
L 193.366307 -14.43304 
L 193.805543 -14.43304 
L 194.244779 -14.43304 
L 194.684014 -14.43304 
L 195.12325 -14.43304 
L 195.562486 -14.43304 
L 196.001722 -14.43304 
L 196.440958 -14.43304 
L 196.880194 -14.43304 
L 197.319429 -14.43304 
L 197.758665 -14.43304 
L 198.197901 -14.43304 
L 198.637137 -14.43304 
L 199.076373 -14.43304 
L 199.515609 -14.43304 
L 199.954844 -14.43304 
L 200.39408 -14.43304 
L 200.833316 -14.43304 
L 201.272552 -14.43304 
L 201.711788 -14.43304 
L 202.151024 -14.43304 
L 202.59026 -14.43304 
L 203.029495 -14.43304 
L 203.468731 -14.43304 
L 203.907967 -14.43304 
L 204.347203 -14.43304 
L 204.786439 -14.43304 
L 205.225675 -14.43304 
L 205.66491 -14.43304 
L 206.104146 -14.43304 
L 206.543382 -14.43304 
L 206.982618 -14.43304 
L 207.421854 -14.43304 
L 207.86109 -14.43304 
L 208.300325 -14.43304 
L 208.739561 -14.43304 
L 209.178797 -14.43304 
L 209.618033 -14.43304 
L 210.057269 -14.43304 
L 210.496505 -14.43304 
L 210.935741 -14.43304 
L 211.374976 -14.43304 
L 211.814212 -14.43304 
L 212.253448 -14.43304 
L 212.692684 -14.43304 
L 213.13192 -14.43304 
L 213.571156 -14.43304 
L 214.010391 -14.43304 
L 214.449627 -14.43304 
L 214.888863 -14.43304 
L 215.328099 -14.43304 
L 215.767335 -14.43304 
L 216.206571 -14.43304 
L 216.645806 -14.43304 
L 217.085042 -14.43304 
L 217.524278 -14.43304 
L 217.963514 -14.43304 
L 218.40275 -14.43304 
L 218.841986 -14.43304 
L 219.281221 -14.43304 
L 219.720457 -14.43304 
L 220.159693 -14.43304 
L 220.598929 -14.43304 
L 221.038165 -14.43304 
L 221.477401 -14.43304 
L 221.916637 -14.43304 
L 222.355872 -14.43304 
L 222.795108 -14.43304 
L 223.234344 -14.43304 
L 223.67358 -14.43304 
L 224.112816 -14.43304 
L 224.552052 -14.43304 
L 224.991287 -14.43304 
L 225.430523 -14.43304 
L 225.869759 -14.43304 
L 226.308995 -14.43304 
L 226.748231 -14.43304 
L 227.187467 -14.43304 
L 227.626702 -14.43304 
L 228.065938 -14.43304 
L 228.505174 -14.43304 
L 228.94441 -14.43304 
L 229.383646 -14.43304 
L 229.822882 -14.43304 
L 230.262117 -14.43304 
L 230.701353 -14.43304 
L 231.140589 -14.43304 
L 231.579825 -14.43304 
L 232.019061 -14.43304 
L 232.458297 -14.43304 
L 232.897533 -14.43304 
L 233.336768 -14.43304 
L 233.776004 -14.43304 
L 234.21524 -14.43304 
L 234.654476 -14.43304 
L 235.093712 -14.43304 
L 235.532948 -14.43304 
L 235.972183 -14.43304 
L 236.411419 -14.43304 
L 236.850655 -14.43304 
L 237.289891 -14.43304 
L 237.729127 -14.43304 
L 238.168363 -14.43304 
L 238.607598 -14.43304 
L 239.046834 -14.43304 
L 239.48607 -14.43304 
L 239.925306 -14.43304 
L 240.364542 -14.43304 
L 240.803778 -14.43304 
L 241.243014 -14.43304 
L 241.682249 -14.43304 
L 242.121485 -14.43304 
L 242.560721 -14.43304 
L 242.999957 -14.43304 
L 243.439193 -14.43304 
L 243.878429 -14.43304 
L 244.317664 -14.43304 
L 244.7569 -14.43304 
L 245.196136 -14.43304 
L 245.635372 -14.43304 
L 246.074608 -14.43304 
L 246.513844 -14.43304 
L 246.953079 -14.43304 
L 247.392315 -14.43304 
L 247.831551 -14.43304 
L 248.270787 -14.43304 
L 248.710023 -14.43304 
L 249.149259 -14.43304 
L 249.588494 -14.43304 
L 250.02773 -14.43304 
L 250.466966 -14.43304 
L 250.906202 -14.43304 
L 251.345438 -14.43304 
L 251.784674 -14.43304 
L 252.22391 -14.43304 
L 252.663145 -14.43304 
L 253.102381 -14.43304 
L 253.541617 -14.43304 
L 253.980853 -14.43304 
L 254.420089 -14.43304 
L 254.859325 -14.43304 
L 255.29856 -14.43304 
L 255.737796 -14.43304 
L 256.177032 -14.43304 
L 256.616268 -14.43304 
L 256.616268 -14.437376 
L 256.616268 -14.437376 
L 256.177032 -14.439359 
L 255.737796 -14.442131 
L 255.29856 -14.445953 
L 254.859325 -14.451151 
L 254.420089 -14.458124 
L 253.980853 -14.467349 
L 253.541617 -14.479389 
L 253.102381 -14.494891 
L 252.663145 -14.514579 
L 252.22391 -14.539249 
L 251.784674 -14.569749 
L 251.345438 -14.606957 
L 250.906202 -14.651749 
L 250.466966 -14.704965 
L 250.02773 -14.767369 
L 249.588494 -14.839605 
L 249.149259 -14.922156 
L 248.710023 -15.015307 
L 248.270787 -15.119108 
L 247.831551 -15.233351 
L 247.392315 -15.357557 
L 246.953079 -15.490975 
L 246.513844 -15.632588 
L 246.074608 -15.781141 
L 245.635372 -15.935174 
L 245.196136 -16.093063 
L 244.7569 -16.253073 
L 244.317664 -16.413406 
L 243.878429 -16.572263 
L 243.439193 -16.72789 
L 242.999957 -16.87863 
L 242.560721 -17.022964 
L 242.121485 -17.159547 
L 241.682249 -17.287237 
L 241.243014 -17.405112 
L 240.803778 -17.512485 
L 240.364542 -17.608904 
L 239.925306 -17.694149 
L 239.48607 -17.768223 
L 239.046834 -17.831338 
L 238.607598 -17.883887 
L 238.168363 -17.926424 
L 237.729127 -17.959637 
L 237.289891 -17.984314 
L 236.850655 -18.001313 
L 236.411419 -18.011532 
L 235.972183 -18.015883 
L 235.532948 -18.015258 
L 235.093712 -18.010513 
L 234.654476 -18.002445 
L 234.21524 -17.991779 
L 233.776004 -17.979157 
L 233.336768 -17.965139 
L 232.897533 -17.950196 
L 232.458297 -17.934723 
L 232.019061 -17.919045 
L 231.579825 -17.90343 
L 231.140589 -17.888099 
L 230.701353 -17.873247 
L 230.262117 -17.859049 
L 229.822882 -17.845676 
L 229.383646 -17.8333 
L 228.94441 -17.822102 
L 228.505174 -17.812268 
L 228.065938 -17.80399 
L 227.626702 -17.797454 
L 227.187467 -17.792839 
L 226.748231 -17.790299 
L 226.308995 -17.789956 
L 225.869759 -17.791891 
L 225.430523 -17.796135 
L 224.991287 -17.802667 
L 224.552052 -17.811416 
L 224.112816 -17.822261 
L 223.67358 -17.83504 
L 223.234344 -17.849564 
L 222.795108 -17.865623 
L 222.355872 -17.883004 
L 221.916637 -17.901497 
L 221.477401 -17.920913 
L 221.038165 -17.941081 
L 220.598929 -17.961858 
L 220.159693 -17.983129 
L 219.720457 -18.0048 
L 219.281221 -18.026796 
L 218.841986 -18.04905 
L 218.40275 -18.071501 
L 217.963514 -18.09408 
L 217.524278 -18.116711 
L 217.085042 -18.139303 
L 216.645806 -18.161757 
L 216.206571 -18.183966 
L 215.767335 -18.205826 
L 215.328099 -18.227246 
L 214.888863 -18.248159 
L 214.449627 -18.268539 
L 214.010391 -18.288405 
L 213.571156 -18.307834 
L 213.13192 -18.326965 
L 212.692684 -18.345995 
L 212.253448 -18.365172 
L 211.814212 -18.384784 
L 211.374976 -18.405141 
L 210.935741 -18.426559 
L 210.496505 -18.449335 
L 210.057269 -18.473736 
L 209.618033 -18.499978 
L 209.178797 -18.528218 
L 208.739561 -18.558551 
L 208.300325 -18.591011 
L 207.86109 -18.625577 
L 207.421854 -18.662184 
L 206.982618 -18.700736 
L 206.543382 -18.741117 
L 206.104146 -18.783208 
L 205.66491 -18.826891 
L 205.225675 -18.872059 
L 204.786439 -18.918618 
L 204.347203 -18.966487 
L 203.907967 -19.015597 
L 203.468731 -19.065891 
L 203.029495 -19.117318 
L 202.59026 -19.169839 
L 202.151024 -19.223421 
L 201.711788 -19.27805 
L 201.272552 -19.333731 
L 200.833316 -19.390495 
L 200.39408 -19.448411 
L 199.954844 -19.507586 
L 199.515609 -19.568178 
L 199.076373 -19.630395 
L 198.637137 -19.694499 
L 198.197901 -19.760808 
L 197.758665 -19.829694 
L 197.319429 -19.901585 
L 196.880194 -19.976958 
L 196.440958 -20.05634 
L 196.001722 -20.140303 
L 195.562486 -20.229461 
L 195.12325 -20.32446 
L 194.684014 -20.425969 
L 194.244779 -20.534666 
L 193.805543 -20.65122 
L 193.366307 -20.776263 
L 192.927071 -20.910362 
L 192.487835 -21.053978 
L 192.048599 -21.207421 
L 191.609364 -21.370797 
L 191.170128 -21.543952 
L 190.730892 -21.726406 
L 190.291656 -21.917291 
L 189.85242 -22.11528 
L 189.413184 -22.318528 
L 188.973948 -22.524617 
L 188.534713 -22.730512 
L 188.095477 -22.932541 
L 187.656241 -23.126397 
L 187.217005 -23.307179 
L 186.777769 -23.469464 
L 186.338533 -23.607426 
L 185.899298 -23.715007 
L 185.460062 -23.786121 
L 185.020826 -23.814902 
L 184.58159 -23.795986 
L 184.142354 -23.724799 
L 183.703118 -23.597846 
L 183.263883 -23.412977 
L 182.824647 -23.169606 
L 182.385411 -22.868861 
L 181.946175 -22.513654 
L 181.506939 -22.108654 
L 181.067703 -21.660162 
L 180.628468 -21.175886 
L 180.189232 -20.66463 
L 179.749996 -20.135927 
L 179.31076 -19.599615 
L 178.871524 -19.065421 
L 178.432288 -18.542543 
L 177.993052 -18.039295 
L 177.553817 -17.562806 
L 177.114581 -17.118812 
L 176.675345 -16.711538 
L 176.236109 -16.343673 
L 175.796873 -16.016428 
L 175.357637 -15.729674 
L 174.918402 -15.482123 
L 174.479166 -15.271557 
L 174.03993 -15.095068 
L 173.600694 -14.949287 
L 173.161458 -14.830612 
L 172.722222 -14.735391 
L 172.282987 -14.660085 
L 171.843751 -14.601379 
L 171.404515 -14.556265 
L 170.965279 -14.522088 
L 170.526043 -14.496565 
L 170.086807 -14.477773 
L 169.647571 -14.464132 
L 169.208336 -14.454371 
z
" id="m04c00a8ca0" style="stroke:#c44e52;stroke-width:0.8;"/>
    </defs>
    <g clip-path="url(#pfb779c3e6c)">
     <use style="fill:#c44e52;fill-opacity:0.25;stroke:#c44e52;stroke-width:0.8;" x="0" xlink:href="#m04c00a8ca0" y="126"/>
    </g>
   </g>
   <g id="PolyCollection_6">
    <defs>
     <path d="M 191.121178 -14.434357 
L 191.121178 -14.43304 
L 191.327412 -14.43304 
L 191.533646 -14.43304 
L 191.739881 -14.43304 
L 191.946115 -14.43304 
L 192.152349 -14.43304 
L 192.358583 -14.43304 
L 192.564818 -14.43304 
L 192.771052 -14.43304 
L 192.977286 -14.43304 
L 193.183521 -14.43304 
L 193.389755 -14.43304 
L 193.595989 -14.43304 
L 193.802223 -14.43304 
L 194.008458 -14.43304 
L 194.214692 -14.43304 
L 194.420926 -14.43304 
L 194.62716 -14.43304 
L 194.833395 -14.43304 
L 195.039629 -14.43304 
L 195.245863 -14.43304 
L 195.452098 -14.43304 
L 195.658332 -14.43304 
L 195.864566 -14.43304 
L 196.0708 -14.43304 
L 196.277035 -14.43304 
L 196.483269 -14.43304 
L 196.689503 -14.43304 
L 196.895737 -14.43304 
L 197.101972 -14.43304 
L 197.308206 -14.43304 
L 197.51444 -14.43304 
L 197.720675 -14.43304 
L 197.926909 -14.43304 
L 198.133143 -14.43304 
L 198.339377 -14.43304 
L 198.545612 -14.43304 
L 198.751846 -14.43304 
L 198.95808 -14.43304 
L 199.164314 -14.43304 
L 199.370549 -14.43304 
L 199.576783 -14.43304 
L 199.783017 -14.43304 
L 199.989252 -14.43304 
L 200.195486 -14.43304 
L 200.40172 -14.43304 
L 200.607954 -14.43304 
L 200.814189 -14.43304 
L 201.020423 -14.43304 
L 201.226657 -14.43304 
L 201.432891 -14.43304 
L 201.639126 -14.43304 
L 201.84536 -14.43304 
L 202.051594 -14.43304 
L 202.257829 -14.43304 
L 202.464063 -14.43304 
L 202.670297 -14.43304 
L 202.876531 -14.43304 
L 203.082766 -14.43304 
L 203.289 -14.43304 
L 203.495234 -14.43304 
L 203.701468 -14.43304 
L 203.907703 -14.43304 
L 204.113937 -14.43304 
L 204.320171 -14.43304 
L 204.526406 -14.43304 
L 204.73264 -14.43304 
L 204.938874 -14.43304 
L 205.145108 -14.43304 
L 205.351343 -14.43304 
L 205.557577 -14.43304 
L 205.763811 -14.43304 
L 205.970045 -14.43304 
L 206.17628 -14.43304 
L 206.382514 -14.43304 
L 206.588748 -14.43304 
L 206.794983 -14.43304 
L 207.001217 -14.43304 
L 207.207451 -14.43304 
L 207.413685 -14.43304 
L 207.61992 -14.43304 
L 207.826154 -14.43304 
L 208.032388 -14.43304 
L 208.238622 -14.43304 
L 208.444857 -14.43304 
L 208.651091 -14.43304 
L 208.857325 -14.43304 
L 209.06356 -14.43304 
L 209.269794 -14.43304 
L 209.476028 -14.43304 
L 209.682262 -14.43304 
L 209.888497 -14.43304 
L 210.094731 -14.43304 
L 210.300965 -14.43304 
L 210.507199 -14.43304 
L 210.713434 -14.43304 
L 210.919668 -14.43304 
L 211.125902 -14.43304 
L 211.332137 -14.43304 
L 211.538371 -14.43304 
L 211.744605 -14.43304 
L 211.950839 -14.43304 
L 212.157074 -14.43304 
L 212.363308 -14.43304 
L 212.569542 -14.43304 
L 212.775776 -14.43304 
L 212.982011 -14.43304 
L 213.188245 -14.43304 
L 213.394479 -14.43304 
L 213.600714 -14.43304 
L 213.806948 -14.43304 
L 214.013182 -14.43304 
L 214.219416 -14.43304 
L 214.425651 -14.43304 
L 214.631885 -14.43304 
L 214.838119 -14.43304 
L 215.044353 -14.43304 
L 215.250588 -14.43304 
L 215.456822 -14.43304 
L 215.663056 -14.43304 
L 215.869291 -14.43304 
L 216.075525 -14.43304 
L 216.281759 -14.43304 
L 216.487993 -14.43304 
L 216.694228 -14.43304 
L 216.900462 -14.43304 
L 217.106696 -14.43304 
L 217.312931 -14.43304 
L 217.519165 -14.43304 
L 217.725399 -14.43304 
L 217.931633 -14.43304 
L 218.137868 -14.43304 
L 218.344102 -14.43304 
L 218.550336 -14.43304 
L 218.75657 -14.43304 
L 218.962805 -14.43304 
L 219.169039 -14.43304 
L 219.375273 -14.43304 
L 219.581508 -14.43304 
L 219.787742 -14.43304 
L 219.993976 -14.43304 
L 220.20021 -14.43304 
L 220.406445 -14.43304 
L 220.612679 -14.43304 
L 220.818913 -14.43304 
L 221.025147 -14.43304 
L 221.231382 -14.43304 
L 221.437616 -14.43304 
L 221.64385 -14.43304 
L 221.850085 -14.43304 
L 222.056319 -14.43304 
L 222.262553 -14.43304 
L 222.468787 -14.43304 
L 222.675022 -14.43304 
L 222.881256 -14.43304 
L 223.08749 -14.43304 
L 223.293724 -14.43304 
L 223.499959 -14.43304 
L 223.706193 -14.43304 
L 223.912427 -14.43304 
L 224.118662 -14.43304 
L 224.324896 -14.43304 
L 224.53113 -14.43304 
L 224.737364 -14.43304 
L 224.943599 -14.43304 
L 225.149833 -14.43304 
L 225.356067 -14.43304 
L 225.562301 -14.43304 
L 225.768536 -14.43304 
L 225.97477 -14.43304 
L 226.181004 -14.43304 
L 226.387239 -14.43304 
L 226.593473 -14.43304 
L 226.799707 -14.43304 
L 227.005941 -14.43304 
L 227.212176 -14.43304 
L 227.41841 -14.43304 
L 227.624644 -14.43304 
L 227.830878 -14.43304 
L 228.037113 -14.43304 
L 228.243347 -14.43304 
L 228.449581 -14.43304 
L 228.655816 -14.43304 
L 228.86205 -14.43304 
L 229.068284 -14.43304 
L 229.274518 -14.43304 
L 229.480753 -14.43304 
L 229.686987 -14.43304 
L 229.893221 -14.43304 
L 230.099455 -14.43304 
L 230.30569 -14.43304 
L 230.511924 -14.43304 
L 230.718158 -14.43304 
L 230.924393 -14.43304 
L 231.130627 -14.43304 
L 231.336861 -14.43304 
L 231.543095 -14.43304 
L 231.74933 -14.43304 
L 231.955564 -14.43304 
L 232.161798 -14.43304 
L 232.161798 -14.433482 
L 232.161798 -14.433482 
L 231.955564 -14.43394 
L 231.74933 -14.434763 
L 231.543095 -14.436145 
L 231.336861 -14.438307 
L 231.130627 -14.441458 
L 230.924393 -14.445718 
L 230.718158 -14.451056 
L 230.511924 -14.457236 
L 230.30569 -14.463838 
L 230.099455 -14.470356 
L 229.893221 -14.476359 
L 229.686987 -14.481664 
L 229.480753 -14.486435 
L 229.274518 -14.491132 
L 229.068284 -14.496314 
L 228.86205 -14.502358 
L 228.655816 -14.509214 
L 228.449581 -14.516337 
L 228.243347 -14.522835 
L 228.037113 -14.527807 
L 227.830878 -14.530719 
L 227.624644 -14.531667 
L 227.41841 -14.531418 
L 227.212176 -14.531222 
L 227.005941 -14.532469 
L 226.799707 -14.536332 
L 226.593473 -14.543473 
L 226.387239 -14.553883 
L 226.181004 -14.566848 
L 225.97477 -14.581053 
L 225.768536 -14.594802 
L 225.562301 -14.606341 
L 225.356067 -14.614219 
L 225.149833 -14.617583 
L 224.943599 -14.616329 
L 224.737364 -14.611053 
L 224.53113 -14.602874 
L 224.324896 -14.593215 
L 224.118662 -14.583681 
L 223.912427 -14.576056 
L 223.706193 -14.572376 
L 223.499959 -14.574955 
L 223.293724 -14.586255 
L 223.08749 -14.608546 
L 222.881256 -14.643439 
L 222.675022 -14.691435 
L 222.468787 -14.751647 
L 222.262553 -14.821789 
L 222.056319 -14.898452 
L 221.850085 -14.977601 
L 221.64385 -15.055185 
L 221.437616 -15.127778 
L 221.231382 -15.19314 
L 221.025147 -15.250608 
L 220.818913 -15.301218 
L 220.612679 -15.347487 
L 220.406445 -15.392882 
L 220.20021 -15.441079 
L 219.993976 -15.495226 
L 219.787742 -15.557363 
L 219.581508 -15.628127 
L 219.375273 -15.706683 
L 219.169039 -15.790823 
L 218.962805 -15.877153 
L 218.75657 -15.961374 
L 218.550336 -16.038739 
L 218.344102 -16.104757 
L 218.137868 -16.156075 
L 217.931633 -16.19137 
L 217.725399 -16.211929 
L 217.519165 -16.221679 
L 217.312931 -16.226575 
L 217.106696 -16.23347 
L 216.900462 -16.248821 
L 216.694228 -16.277604 
L 216.487993 -16.322753 
L 216.281759 -16.385179 
L 216.075525 -16.46424 
L 215.869291 -16.558358 
L 215.663056 -16.665587 
L 215.456822 -16.784003 
L 215.250588 -16.912028 
L 215.044353 -17.048764 
L 214.838119 -17.194358 
L 214.631885 -17.350239 
L 214.425651 -17.519048 
L 214.219416 -17.704113 
L 214.013182 -17.908586 
L 213.806948 -18.134502 
L 213.600714 -18.382115 
L 213.394479 -18.649777 
L 213.188245 -18.934489 
L 212.982011 -19.233052 
L 212.775776 -19.543562 
L 212.569542 -19.866853 
L 212.363308 -20.207325 
L 212.157074 -20.572683 
L 211.950839 -20.972367 
L 211.744605 -21.415007 
L 211.538371 -21.905814 
L 211.332137 -22.44508 
L 211.125902 -23.028718 
L 210.919668 -23.65092 
L 210.713434 -24.307913 
L 210.507199 -25.001064 
L 210.300965 -25.737629 
L 210.094731 -26.528367 
L 209.888497 -27.382736 
L 209.682262 -28.303587 
L 209.476028 -29.283685 
L 209.269794 -30.305687 
L 209.06356 -31.345771 
L 208.857325 -32.37967 
L 208.651091 -33.388959 
L 208.444857 -34.365535 
L 208.238622 -35.312959 
L 208.032388 -36.24445 
L 207.826154 -37.178272 
L 207.61992 -38.131857 
L 207.413685 -39.116196 
L 207.207451 -40.131874 
L 207.001217 -41.167679 
L 206.794983 -42.202081 
L 206.588748 -43.207229 
L 206.382514 -44.15446 
L 206.17628 -45.01997 
L 205.970045 -45.789196 
L 205.763811 -46.458715 
L 205.557577 -47.035111 
L 205.351343 -47.53109 
L 205.145108 -47.960031 
L 204.938874 -48.330691 
L 204.73264 -48.643787 
L 204.526406 -48.891425 
L 204.320171 -49.059272 
L 204.113937 -49.130325 
L 203.907703 -49.08867 
L 203.701468 -48.921963 
L 203.495234 -48.622237 
L 203.289 -48.185576 
L 203.082766 -47.611633 
L 202.876531 -46.903644 
L 202.670297 -46.068823 
L 202.464063 -45.118339 
L 202.257829 -44.066107 
L 202.051594 -42.926372 
L 201.84536 -41.711072 
L 201.639126 -40.428518 
L 201.432891 -39.084448 
L 201.226657 -37.685254 
L 201.020423 -36.24186 
L 200.814189 -34.772166 
L 200.607954 -33.300618 
L 200.40172 -31.854891 
L 200.195486 -30.461075 
L 199.989252 -29.139421 
L 199.783017 -27.902201 
L 199.576783 -26.754144 
L 199.370549 -25.694615 
L 199.164314 -24.720087 
L 198.95808 -23.825665 
L 198.751846 -23.005196 
L 198.545612 -22.250495 
L 198.339377 -21.550744 
L 198.133143 -20.892997 
L 197.926909 -20.264081 
L 197.720675 -19.653362 
L 197.51444 -19.055307 
L 197.308206 -18.470843 
L 197.101972 -17.906978 
L 196.895737 -17.37484 
L 196.689503 -16.886817 
L 196.483269 -16.453666 
L 196.277035 -16.082318 
L 196.0708 -15.774771 
L 195.864566 -15.528147 
L 195.658332 -15.335668 
L 195.452098 -15.188207 
L 195.245863 -15.075948 
L 195.039629 -14.989781 
L 194.833395 -14.922139 
L 194.62716 -14.86723 
L 194.420926 -14.820794 
L 194.214692 -14.779663 
L 194.008458 -14.741412 
L 193.802223 -14.704242 
L 193.595989 -14.667088 
L 193.389755 -14.629762 
L 193.183521 -14.592953 
L 192.977286 -14.557989 
L 192.771052 -14.52641 
L 192.564818 -14.499501 
L 192.358583 -14.477964 
L 192.152349 -14.461811 
L 191.946115 -14.450468 
L 191.739881 -14.443013 
L 191.533646 -14.438426 
L 191.327412 -14.435783 
L 191.121178 -14.434357 
z
" id="me6c990acd1" style="stroke:#715894;stroke-width:0.8;"/>
    </defs>
    <g clip-path="url(#pfb779c3e6c)">
     <use style="fill:#715894;fill-opacity:0.5;stroke:#715894;stroke-width:0.8;" x="0" xlink:href="#me6c990acd1" y="126"/>
    </g>
   </g>
   <g id="patch_14">
    <path d="M 173.129787 111.56696 
L 173.129787 75.134811 
" style="fill:none;stroke:#262626;stroke-linecap:square;stroke-linejoin:miter;"/>
   </g>
   <g id="patch_15">
    <path d="M 173.129787 111.56696 
L 230.99976 111.56696 
" style="fill:none;stroke:#262626;stroke-linecap:square;stroke-linejoin:miter;"/>
   </g>
  </g>
 </g>
 <defs>
  <clipPath id="p43f230728e">
   <rect height="30.431669" width="57.869973" x="14.43304" y="45.201856"/>
  </clipPath>
  <clipPath id="pe04aa33649">
   <rect height="99.298299" width="57.869973" x="87.903013" y="12.268661"/>
  </clipPath>
  <clipPath id="pb0a78303a4">
   <rect height="33.431909" width="57.869973" x="173.129787" y="12.268661"/>
  </clipPath>
  <clipPath id="pfb779c3e6c">
   <rect height="36.432149" width="57.869973" x="173.129787" y="75.134811"/>
  </clipPath>
 </defs>
</svg>
